{"glyphs":{"0":{"ha":765,"x_min":45,"x_max":753,"o":"m 482 1007 q 753 687 753 1007 q 638 177 753 367 q 318 -14 524 -14 q 114 70 183 -14 q 45 317 45 153 q 101 680 45 518 q 255 925 158 842 q 482 1007 353 1007 m 464 838 q 363 767 410 838 q 283 563 315 697 q 250 313 250 428 q 270 194 250 232 q 335 155 289 155 q 437 227 390 155 q 515 431 484 298 q 547 693 547 565 q 527 803 547 768 q 464 838 507 838 z "},"1":{"ha":765,"x_min":123,"x_max":676,"o":"m 260 0 l 382 562 q 433 757 404 657 l 391 725 q 214 610 351 695 l 123 755 l 507 991 l 676 991 l 467 0 l 260 0 z "},"2":{"ha":765,"x_min":-33,"x_max":745,"o":"m 319 432 q 488 605 441 540 q 534 723 534 669 q 507 804 534 777 q 433 831 479 831 q 339 808 387 831 q 224 728 292 785 l 125 865 q 296 974 214 941 q 465 1006 377 1006 q 669 939 593 1006 q 745 764 745 873 q 717 628 745 692 q 635 502 690 564 q 453 334 581 439 l 271 183 l 271 176 l 656 176 l 619 0 l -33 0 l -4 144 l 319 432 z "},"3":{"ha":765,"x_min":9,"x_max":749,"o":"m 473 1006 q 676 944 603 1006 q 749 779 749 883 q 684 602 749 674 q 507 510 620 529 l 507 507 q 642 435 595 490 q 688 298 688 381 q 576 74 689 161 q 280 -14 463 -14 q 272 -14 276 -14 q 9 40 110 -14 l 9 221 q 262 153 124 153 q 427 195 369 153 q 485 315 485 238 q 310 432 485 432 l 216 432 l 248 582 l 297 582 q 475 624 410 582 q 541 741 541 666 q 511 811 541 786 q 429 836 482 836 q 235 768 338 836 l 149 907 q 307 984 234 962 q 473 1006 380 1006 z "},"4":{"ha":765,"x_min":-17,"x_max":749,"o":"m 582 205 l 539 0 l 340 0 l 383 205 l -17 205 l 16 364 l 538 991 l 749 991 l 616 368 l 732 368 l 697 205 l 582 205 m 418 368 l 457 536 q 485 649 466 578 q 513 743 503 720 l 509 743 q 419 621 486 701 l 207 368 l 418 368 z "},"5":{"ha":765,"x_min":18,"x_max":765,"o":"m 422 625 q 618 555 547 625 q 690 361 690 486 q 690 357 690 359 q 582 87 690 188 q 284 -14 473 -14 q 277 -14 281 -14 q 130 2 199 -14 q 18 41 62 17 l 18 224 q 257 157 136 157 q 420 204 361 157 q 479 336 479 252 q 440 432 479 399 q 330 464 401 464 q 183 441 258 464 l 113 494 l 253 991 l 765 991 l 728 814 l 396 814 l 336 615 q 422 625 385 625 z "},"6":{"ha":765,"x_min":60,"x_max":782,"o":"m 493 644 q 657 578 600 644 q 715 396 715 513 q 667 180 715 280 q 350 -14 571 -14 q 133 72 207 -14 q 60 318 60 157 q 102 587 60 456 q 631 1007 235 1007 q 782 989 716 1007 l 747 822 q 618 839 692 839 q 405 766 486 839 q 279 532 324 692 l 282 532 q 493 644 360 644 m 359 154 q 469 218 427 154 q 511 378 511 282 q 488 455 511 427 q 421 484 465 484 q 341 459 378 484 q 260 286 260 406 q 287 190 260 225 q 359 154 314 154 z "},"7":{"ha":765,"x_min":53,"x_max":825,"o":"m 553 815 l 126 815 l 164 991 l 825 991 l 798 860 l 288 0 l 53 0 l 553 815 z "},"8":{"ha":765,"x_min":37,"x_max":764,"o":"m 494 1007 q 689 945 614 1007 q 764 786 764 882 q 764 781 764 783 q 709 622 764 690 q 553 519 654 555 q 700 272 700 424 q 700 267 700 269 q 604 66 700 145 q 356 -14 508 -14 q 349 -14 353 -14 q 120 55 203 -14 q 37 237 37 123 q 273 526 37 439 q 161 729 161 616 q 161 734 161 732 q 250 930 161 853 q 481 1007 339 1007 q 489 1007 486 1007 q 494 1007 492 1007 m 567 755 q 541 828 567 801 q 467 854 514 854 q 389 823 420 854 q 358 742 358 791 q 441 606 358 652 q 567 755 567 654 m 395 436 q 277 363 315 405 q 239 263 239 321 q 273 173 239 205 q 367 140 307 140 q 464 177 427 140 q 501 267 501 213 q 476 360 501 321 q 395 436 451 400 z "},"9":{"ha":765,"x_min":58,"x_max":741,"o":"m 315 349 q 144 418 205 349 q 83 607 83 489 q 133 819 83 725 q 460 1007 231 1007 q 669 924 597 1007 q 741 679 741 840 q 674 318 741 490 q 495 67 607 147 q 221 -14 384 -14 q 58 8 136 -14 l 58 182 q 214 154 134 154 q 450 281 369 154 q 518 456 490 341 l 515 456 q 315 349 440 349 m 433 839 q 359 810 393 839 q 306 734 324 781 q 288 633 288 686 q 288 629 288 631 q 313 541 288 571 q 385 510 338 510 q 492 565 448 511 q 536 705 536 618 q 536 710 536 707 q 512 804 536 769 q 437 839 487 839 q 433 839 435 839 z "}," ":{"ha":361,"x_min":0,"x_max":0,"o":""},"!":{"ha":397,"x_min":17,"x_max":439,"o":"m 102 329 l 208 991 l 439 991 l 265 329 l 102 329 m 17 78 q 54 176 17 140 q 155 212 90 212 q 230 186 202 212 q 257 114 257 160 q 219 18 257 55 q 127 -18 182 -18 q 45 7 73 -18 q 17 78 17 33 z "},"\"":{"ha":629,"x_min":136,"x_max":647,"o":"m 269 633 l 136 633 l 184 991 l 372 991 l 269 633 m 545 633 l 410 633 l 460 991 l 647 991 l 545 633 z "},"#":{"ha":897,"x_min":28,"x_max":904,"o":"m 656 416 l 831 416 l 818 277 l 616 277 l 538 0 l 389 0 l 468 277 l 336 277 l 258 0 l 113 0 l 189 277 l 28 277 l 40 416 l 228 416 l 275 574 l 104 574 l 117 715 l 313 715 l 393 991 l 541 991 l 461 715 l 596 715 l 675 991 l 821 991 l 742 715 l 904 715 l 892 574 l 703 574 l 656 416 m 509 416 l 555 574 l 422 574 l 375 416 l 509 416 z "},"$":{"ha":765,"x_min":35,"x_max":760,"o":"m 701 336 q 616 138 701 211 q 367 54 530 66 l 340 -81 l 245 -81 l 275 56 q 35 114 134 64 l 35 294 q 309 215 169 222 l 357 433 q 140 681 140 514 q 227 870 140 798 q 464 953 313 943 l 488 1055 l 582 1055 l 559 953 q 760 892 672 938 l 688 734 q 524 785 597 779 l 481 582 q 613 514 570 547 q 701 336 701 448 m 340 693 q 395 618 340 640 l 429 785 q 363 756 387 780 q 340 693 340 733 m 498 315 q 441 396 498 373 l 403 218 q 473 249 447 224 q 498 315 498 274 z "},"%":{"ha":1189,"x_min":78,"x_max":1139,"o":"m 363 1006 q 507 951 457 1006 q 557 787 557 897 q 519 581 557 678 q 417 433 481 483 q 264 383 353 383 q 127 439 176 383 q 78 606 78 496 q 115 811 78 715 q 363 1006 192 1006 m 319 0 l 157 0 l 895 991 l 1054 991 l 319 0 m 351 864 q 276 777 309 864 q 244 589 244 689 q 282 524 244 524 q 358 613 326 524 q 390 799 390 702 q 351 864 390 864 m 949 610 q 994 610 949 610 q 1088 556 1038 610 q 1139 395 1139 503 q 1102 188 1139 287 q 1002 38 1066 89 q 856 -12 939 -12 q 709 41 759 -12 q 660 192 660 94 q 696 410 660 311 q 796 559 732 509 q 949 610 860 610 m 933 468 q 882 430 907 468 q 842 325 858 392 q 827 193 827 258 q 864 127 827 127 q 917 165 892 127 q 957 270 941 203 q 972 402 972 337 q 933 468 972 468 z "},"&":{"ha":983,"x_min":46,"x_max":970,"o":"m 612 66 q 346 -14 494 -14 q 122 53 197 -14 q 46 243 46 119 q 99 411 46 340 q 285 547 153 481 q 233 722 233 635 q 313 931 233 854 q 528 1007 393 1007 q 708 951 642 1007 q 774 799 774 895 q 526 510 774 609 l 659 332 q 713 414 690 373 q 766 532 737 456 l 970 532 q 760 195 880 319 l 899 0 l 661 0 l 612 66 m 449 624 q 554 699 526 664 q 583 773 583 734 q 564 830 583 812 q 515 848 545 848 q 446 817 471 848 q 421 736 421 786 q 429 674 421 705 q 449 624 437 643 m 367 422 q 283 352 307 388 q 260 267 260 315 q 290 189 260 218 q 370 160 321 160 q 519 200 447 160 l 367 422 z "},"'":{"ha":354,"x_min":136,"x_max":372,"o":"m 269 633 l 136 633 l 184 991 l 372 991 l 269 633 z "},"(":{"ha":471,"x_min":50,"x_max":570,"o":"m 151 -220 q 50 190 50 -39 q 133 615 50 420 q 392 991 216 811 l 570 991 q 231 183 231 621 q 310 -220 231 -26 l 151 -220 z "},")":{"ha":471,"x_min":-100,"x_max":419,"o":"m 318 991 q 419 581 419 812 q 335 153 419 349 q 78 -220 250 -43 l -100 -220 q 239 589 239 149 q 160 991 239 796 l 318 991 z "},"*":{"ha":757,"x_min":117,"x_max":786,"o":"m 524 793 l 786 812 l 774 640 l 545 669 l 653 441 l 486 392 l 425 621 l 292 432 l 151 543 l 338 711 l 117 774 l 175 935 l 404 817 l 427 1067 l 600 1032 l 524 793 z "},"+":{"ha":765,"x_min":74,"x_max":720,"o":"m 74 415 l 74 564 l 322 564 l 322 814 l 471 814 l 471 564 l 720 564 l 720 415 l 471 415 l 471 168 l 322 168 l 322 415 l 74 415 z "},",":{"ha":386,"x_min":-69,"x_max":261,"o":"m 256 161 l 261 146 q 83 -179 179 -31 l -69 -179 q 62 161 -19 -65 l 256 161 z "},"-":{"ha":447,"x_min":28,"x_max":419,"o":"m 64 457 l 419 457 l 383 288 l 28 288 l 64 457 z "},".":{"ha":396,"x_min":17,"x_max":257,"o":"m 17 78 q 54 176 17 140 q 155 212 90 212 q 230 186 202 212 q 257 114 257 160 q 219 18 257 55 q 127 -18 182 -18 q 45 7 73 -18 q 17 78 17 33 z "},"/":{"ha":585,"x_min":-61,"x_max":688,"o":"m 139 0 l -61 0 l 488 991 l 688 991 l 139 0 z "},":":{"ha":396,"x_min":17,"x_max":380,"o":"m 140 637 q 178 736 140 700 q 279 772 216 772 q 353 746 326 772 q 380 673 380 720 q 343 578 380 615 q 251 542 307 542 q 168 567 196 542 q 140 637 140 591 m 17 78 q 54 176 17 140 q 155 212 90 212 q 230 186 202 212 q 257 114 257 160 q 219 18 257 55 q 127 -18 182 -18 q 45 7 73 -18 q 17 78 17 33 z "},";":{"ha":396,"x_min":-69,"x_max":380,"o":"m 140 637 q 178 736 140 700 q 279 772 216 772 q 353 746 326 772 q 380 673 380 720 q 343 578 380 615 q 251 542 307 542 q 168 567 196 542 q 140 637 140 591 m 256 161 l 261 146 q 83 -179 179 -31 l -69 -179 q 62 161 -19 -65 l 256 161 z "},"<":{"ha":765,"x_min":74,"x_max":720,"o":"m 74 435 l 74 532 l 720 868 l 720 705 l 283 490 l 720 300 l 720 138 l 74 435 z "},"=":{"ha":765,"x_min":74,"x_max":720,"o":"m 74 694 l 720 694 l 720 547 l 74 547 l 74 694 m 74 432 l 720 432 l 720 283 l 74 283 l 74 432 z "},">":{"ha":765,"x_min":74,"x_max":720,"o":"m 510 490 l 74 705 l 74 868 l 720 532 l 720 435 l 74 138 l 74 300 l 510 490 z "},"?":{"ha":637,"x_min":113,"x_max":682,"o":"m 482 758 q 392 839 482 839 q 319 828 357 839 q 183 771 282 817 l 121 921 q 422 1006 277 1006 q 612 946 543 1006 q 682 781 682 887 q 607 595 682 675 q 478 496 570 557 q 412 446 434 466 q 377 401 390 425 q 351 329 363 378 l 176 329 l 186 382 q 237 503 199 452 q 355 609 274 553 q 459 693 437 664 q 482 758 482 722 m 113 78 q 150 176 113 140 q 252 212 187 212 q 326 186 298 212 q 353 114 353 160 q 315 18 353 55 q 223 -18 278 -18 q 140 7 168 -18 q 113 78 113 33 z "},"@":{"ha":1189,"x_min":62,"x_max":1175,"o":"m 536 -126 q 287 -68 395 -126 q 120 95 178 -9 q 62 333 62 200 q 62 339 62 336 q 144 677 62 529 q 377 908 227 825 q 714 991 528 991 q 1052 881 929 991 q 1175 570 1175 770 q 1132 351 1175 452 q 1011 195 1088 251 q 839 139 935 139 q 741 165 779 139 q 692 239 703 191 l 688 239 q 611 163 654 186 q 511 139 569 139 q 377 193 425 139 q 329 348 329 248 q 374 536 329 449 q 501 675 420 623 q 684 726 583 726 q 905 689 810 726 l 833 404 q 815 309 815 332 q 854 262 815 262 q 938 306 899 262 q 1001 422 977 349 q 1025 567 1025 495 q 941 788 1025 711 q 697 864 857 864 q 448 800 559 864 q 275 620 337 736 q 214 354 214 503 q 304 96 214 190 q 559 3 395 3 q 708 16 637 3 q 859 61 779 30 l 859 -65 q 543 -126 703 -126 q 536 -126 540 -126 m 675 603 q 576 568 619 603 q 509 475 534 534 q 484 364 484 416 q 547 262 484 262 q 692 446 643 262 l 730 596 q 675 603 707 603 z "},"A":{"ha":872,"x_min":-83,"x_max":789,"o":"m 250 236 l 134 0 l -83 0 l 436 996 l 689 996 l 789 0 l 587 0 l 571 236 l 250 236 m 536 821 l 536 846 q 463 673 509 768 l 335 412 l 561 412 l 543 650 q 536 821 536 734 z "},"B":{"ha":861,"x_min":36,"x_max":848,"o":"m 534 991 q 848 771 848 991 q 792 603 848 669 q 632 515 736 537 l 632 511 q 741 445 701 493 q 781 323 781 397 q 677 84 781 168 q 390 0 574 0 l 36 0 l 245 991 l 534 991 m 471 599 q 593 631 552 599 q 635 726 635 664 q 519 819 635 819 l 416 819 l 370 599 l 471 599 m 401 174 q 526 213 481 174 q 571 322 571 252 q 447 432 571 432 l 335 432 l 279 174 l 401 174 z "},"C":{"ha":850,"x_min":83,"x_max":905,"o":"m 614 832 q 453 778 525 832 q 338 616 382 723 q 294 391 294 509 q 341 217 294 272 q 488 163 388 163 q 718 215 587 163 l 718 39 q 447 -14 582 -14 q 179 88 275 -14 q 83 370 83 189 q 154 701 83 551 q 342 929 224 851 q 614 1007 460 1007 q 764 991 696 1007 q 905 936 831 976 l 825 766 q 707 819 753 806 q 614 832 661 832 z "},"D":{"ha":940,"x_min":36,"x_max":897,"o":"m 514 991 q 797 895 696 991 q 897 613 897 798 q 831 287 897 427 q 639 73 764 146 q 342 0 513 0 l 36 0 l 245 991 l 514 991 m 351 174 q 527 226 452 174 q 643 378 602 278 q 685 606 685 478 q 636 764 685 709 q 494 819 587 819 l 416 819 l 279 174 l 351 174 z "},"E":{"ha":753,"x_min":36,"x_max":800,"o":"m 36 0 l 245 991 l 800 991 l 764 819 l 416 819 l 371 602 l 694 602 l 657 429 l 334 429 l 279 174 l 627 174 l 590 0 l 36 0 z "},"F":{"ha":737,"x_min":36,"x_max":798,"o":"m 36 0 l 245 991 l 798 991 l 761 819 l 416 819 l 363 564 l 684 564 l 646 392 l 325 392 l 243 0 l 36 0 z "},"G":{"ha":958,"x_min":83,"x_max":942,"o":"m 450 -14 q 179 86 275 -14 q 83 370 83 186 q 156 700 83 553 q 359 927 228 847 q 664 1007 491 1007 q 942 940 812 1007 l 864 770 q 652 829 753 829 q 469 773 551 829 q 341 613 387 718 q 294 390 294 508 q 343 218 294 273 q 494 163 392 163 q 610 179 545 163 l 654 382 l 473 382 l 511 557 l 893 557 l 783 40 q 615 -2 696 9 q 450 -14 535 -14 z "},"H":{"ha":972,"x_min":36,"x_max":979,"o":"m 562 0 l 653 428 l 334 428 l 243 0 l 36 0 l 245 991 l 453 991 l 371 603 l 690 603 l 772 991 l 979 991 l 770 0 l 562 0 z "},"I":{"ha":447,"x_min":36,"x_max":454,"o":"m 248 991 l 454 991 l 243 0 l 36 0 l 248 991 z "},"J":{"ha":460,"x_min":-218,"x_max":468,"o":"m -92 -292 q -218 -273 -155 -292 l -218 -102 q -107 -115 -157 -115 q 2 -74 -39 -115 q 62 56 43 -33 l 261 991 l 468 991 l 262 26 q 143 -216 227 -140 q -92 -292 60 -292 z "},"K":{"ha":851,"x_min":36,"x_max":979,"o":"m 545 0 l 401 401 l 317 354 l 243 0 l 36 0 l 245 991 l 453 991 l 350 515 l 457 654 l 734 991 l 979 991 l 576 517 l 774 0 l 545 0 z "},"L":{"ha":720,"x_min":36,"x_max":627,"o":"m 245 991 l 453 991 l 279 174 l 627 174 l 590 0 l 36 0 l 245 991 z "},"M":{"ha":1222,"x_min":36,"x_max":1229,"o":"m 942 991 l 1229 991 l 1019 0 l 829 0 l 928 469 q 999 768 963 637 l 996 768 l 610 0 l 419 0 l 378 768 l 375 768 q 348 605 368 713 q 222 0 328 496 l 36 0 l 245 991 l 519 991 l 566 250 l 568 250 l 942 991 z "},"N":{"ha":1048,"x_min":36,"x_max":1055,"o":"m 614 0 l 372 750 l 368 750 l 366 728 q 321 467 344 581 l 222 0 l 36 0 l 245 991 l 488 991 l 718 261 l 721 261 q 748 409 729 311 q 869 991 766 507 l 1055 991 l 846 0 l 614 0 z "},"O":{"ha":1014,"x_min":83,"x_max":971,"o":"m 971 636 q 904 293 971 444 q 721 64 838 142 q 452 -14 605 -14 q 180 86 278 -14 q 83 366 83 187 q 151 695 83 544 q 336 926 218 846 q 608 1007 454 1007 q 876 909 781 1007 q 971 636 971 811 m 760 631 q 715 780 760 727 q 590 832 671 832 q 441 770 509 832 q 333 599 372 707 q 294 364 294 491 q 339 214 294 265 q 466 163 384 163 q 616 222 549 163 q 722 389 684 281 q 760 631 760 497 z "},"P":{"ha":806,"x_min":36,"x_max":807,"o":"m 475 991 q 807 703 807 991 q 692 446 807 539 q 375 353 576 353 l 317 353 l 243 0 l 36 0 l 245 991 l 475 991 m 392 525 q 544 572 488 525 q 599 697 599 618 q 467 819 599 819 l 416 819 l 354 525 l 392 525 z "},"Q":{"ha":1014,"x_min":83,"x_max":971,"o":"m 452 -14 q 180 86 278 -14 q 83 366 83 187 q 151 695 83 544 q 336 926 218 846 q 608 1007 454 1007 q 876 909 781 1007 q 971 636 971 811 q 888 259 971 422 q 661 31 805 97 l 833 -236 l 590 -236 l 469 -14 l 452 -14 m 760 631 q 715 780 760 727 q 590 832 671 832 q 441 770 509 832 q 333 599 372 707 q 294 364 294 491 q 339 214 294 265 q 466 163 384 163 q 616 222 549 163 q 722 389 684 281 q 760 631 760 497 z "},"R":{"ha":846,"x_min":36,"x_max":811,"o":"m 489 991 q 730 923 649 991 q 811 720 811 854 q 755 535 811 612 q 593 421 699 458 l 770 0 l 545 0 l 404 380 l 323 380 l 243 0 l 36 0 l 245 991 l 489 991 m 412 551 q 552 591 503 551 q 600 708 600 630 q 568 792 600 764 q 467 819 535 819 l 416 819 l 359 551 l 412 551 z "},"S":{"ha":736,"x_min":28,"x_max":753,"o":"m 484 831 q 391 800 427 831 q 355 724 355 770 q 378 647 355 679 q 478 566 400 616 q 602 445 562 510 q 642 293 642 379 q 541 68 642 151 q 269 -14 441 -14 q 28 47 119 -14 l 28 233 q 271 160 159 160 q 389 189 347 160 q 432 268 432 218 q 397 360 432 320 q 313 429 379 380 q 181 563 218 497 q 143 704 143 629 q 143 709 143 707 q 237 922 143 838 q 477 1006 331 1006 q 484 1006 480 1006 q 753 939 631 1006 l 679 781 q 484 831 572 831 z "},"T":{"ha":737,"x_min":114,"x_max":836,"o":"m 180 0 l 353 817 l 114 817 l 151 991 l 836 991 l 799 817 l 559 817 l 387 0 l 180 0 z "},"U":{"ha":960,"x_min":96,"x_max":972,"o":"m 404 -14 q 178 63 260 -14 q 96 272 96 140 q 106 366 96 321 l 239 991 l 446 991 l 314 368 q 302 283 302 317 q 431 163 302 163 q 562 214 513 163 q 633 370 611 265 l 765 991 l 972 991 l 836 350 q 688 78 798 170 q 404 -14 579 -14 z "},"V":{"ha":819,"x_min":125,"x_max":945,"o":"m 358 203 l 363 203 q 437 395 416 353 l 730 991 l 945 991 l 437 0 l 211 0 l 125 991 l 325 991 l 359 395 q 361 301 362 368 q 358 203 361 235 z "},"W":{"ha":1242,"x_min":125,"x_max":1372,"o":"m 323 991 l 323 450 q 320 326 323 406 q 314 215 317 246 l 318 215 q 366 342 336 267 q 404 436 395 418 l 654 991 l 838 991 l 852 399 q 846 215 852 300 l 850 215 q 939 452 882 311 l 1162 991 l 1372 991 l 933 0 l 699 0 l 684 489 l 682 583 q 685 690 682 648 l 682 690 q 604 488 650 588 l 385 0 l 155 0 l 125 991 l 323 991 z "},"X":{"ha":842,"x_min":-79,"x_max":950,"o":"m 538 0 l 421 368 l 153 0 l -79 0 l 311 518 l 150 991 l 367 991 l 471 640 l 717 991 l 950 991 l 581 500 l 762 0 l 538 0 z "},"Y":{"ha":783,"x_min":126,"x_max":911,"o":"m 679 991 l 911 991 l 492 379 l 411 0 l 205 0 l 286 379 l 126 991 l 338 991 l 425 590 l 679 991 z "},"Z":{"ha":745,"x_min":-41,"x_max":814,"o":"m -41 0 l -16 136 l 511 818 l 143 818 l 179 991 l 814 991 l 786 854 l 256 174 l 660 174 l 624 0 l -41 0 z "},"[":{"ha":460,"x_min":-25,"x_max":554,"o":"m -25 -220 l 233 991 l 554 991 l 524 848 l 378 848 l 180 -77 l 326 -77 l 296 -220 l -25 -220 z "},"\\":{"ha":585,"x_min":150,"x_max":478,"o":"m 478 0 l 297 0 l 150 991 l 326 991 l 478 0 z "},"]":{"ha":460,"x_min":-93,"x_max":485,"o":"m 82 -77 l 279 848 l 134 848 l 164 991 l 485 991 l 227 -220 l -93 -220 l -62 -77 l 82 -77 z "},"^":{"ha":733,"x_min":14,"x_max":721,"o":"m 433 997 l 533 997 l 721 353 l 570 353 l 452 782 l 179 353 l 14 353 l 433 997 z "},"_":{"ha":555,"x_min":-126,"x_max":452,"o":"m -126 -220 l -106 -125 l 452 -125 l 431 -220 l -126 -220 z "},"`":{"ha":770,"x_min":345,"x_max":633,"o":"m 509 842 q 345 1050 394 954 l 345 1064 l 555 1064 q 633 859 580 962 l 633 842 l 509 842 z "},"a":{"ha":825,"x_min":61,"x_max":802,"o":"m 275 -14 q 118 58 176 -14 q 61 263 61 131 q 110 518 61 396 q 238 705 159 640 q 412 772 317 772 q 600 661 546 772 l 606 661 l 644 758 l 802 758 l 640 0 l 485 0 l 494 98 l 492 98 q 275 -14 401 -14 m 357 151 q 445 196 402 151 q 515 319 488 240 q 542 487 542 398 q 542 496 542 492 q 516 575 542 544 q 445 607 490 607 q 359 559 400 607 q 293 430 318 511 q 268 271 268 349 q 355 151 268 151 q 357 151 356 151 z "},"b":{"ha":827,"x_min":25,"x_max":765,"o":"m 551 772 q 708 700 650 772 q 765 498 765 627 q 719 249 765 370 q 592 57 673 128 q 414 -14 511 -14 q 227 97 282 -14 l 221 97 l 182 0 l 25 0 l 249 1055 l 453 1055 l 411 860 q 354 657 383 736 l 359 657 q 456 748 413 724 q 551 772 499 772 m 469 607 q 381 563 423 607 q 312 441 340 519 q 285 271 285 363 q 310 183 285 216 q 380 151 335 151 q 466 197 425 151 q 532 327 507 243 q 558 488 558 410 q 469 607 558 607 z "},"c":{"ha":671,"x_min":61,"x_max":685,"o":"m 571 40 q 338 -14 469 -14 q 134 59 208 -14 q 61 270 61 132 q 112 526 61 408 q 254 708 162 644 q 466 772 346 772 q 685 724 586 772 l 623 568 q 574 589 592 581 q 468 607 524 607 q 366 563 412 607 q 294 444 319 519 q 268 282 268 368 q 298 184 268 218 q 380 151 329 151 q 474 165 432 151 q 571 207 517 179 l 571 40 z "},"d":{"ha":825,"x_min":61,"x_max":864,"o":"m 275 -14 q 119 59 176 -14 q 61 263 61 132 q 110 516 61 394 q 237 705 158 637 q 412 772 316 772 q 509 747 469 772 q 585 661 549 722 l 590 661 l 591 680 q 608 812 595 756 l 660 1055 l 864 1055 l 640 0 l 485 0 l 494 98 l 492 98 q 391 13 444 40 q 275 -14 339 -14 m 364 151 q 449 197 407 151 q 516 321 490 243 q 542 479 542 399 q 542 488 542 484 q 516 575 542 543 q 446 607 491 607 q 359 559 400 607 q 293 430 318 511 q 268 271 268 349 q 361 151 268 151 q 364 151 363 151 z "},"e":{"ha":774,"x_min":61,"x_max":739,"o":"m 625 45 q 363 -14 507 -14 q 140 63 218 -14 q 61 280 61 140 q 117 536 61 421 q 268 711 173 650 q 485 772 363 772 q 672 717 606 772 q 739 566 739 662 q 626 370 739 439 q 302 301 513 301 l 268 301 l 267 287 l 267 273 q 302 176 267 211 q 399 140 337 140 q 511 154 462 140 q 625 199 559 168 l 625 45 m 321 439 q 484 471 425 439 q 543 561 543 504 q 472 625 543 625 q 359 571 412 625 q 290 439 307 517 l 321 439 z "},"f":{"ha":518,"x_min":-149,"x_max":669,"o":"m -31 -334 q -149 -317 -102 -334 l -149 -153 q -67 -167 -106 -167 q 3 -139 -27 -167 q 46 -52 34 -111 l 184 603 l 74 603 l 94 701 l 218 758 l 231 815 q 325 1004 258 945 q 510 1063 391 1063 q 669 1029 600 1063 l 615 878 q 528 899 569 899 q 463 872 488 899 q 431 800 439 846 l 422 758 l 571 758 l 538 603 l 389 603 l 243 -82 q -31 -334 191 -334 z "},"g":{"ha":751,"x_min":-78,"x_max":804,"o":"m 673 536 q 591 327 673 404 q 368 250 509 250 q 301 257 328 250 q 244 204 244 239 q 263 172 244 182 q 325 155 282 161 l 418 143 q 579 86 528 129 q 629 -39 629 43 q 524 -258 629 -182 q 221 -334 418 -334 q 1 -282 79 -334 q -78 -142 -78 -231 q -31 -22 -78 -72 q 114 60 16 27 q 64 150 64 92 q 94 233 64 198 q 193 300 124 268 q 128 376 149 333 q 107 479 107 419 q 192 693 107 614 q 424 772 277 772 q 536 757 479 772 l 804 757 l 781 644 l 663 616 q 673 536 673 582 m 416 643 q 332 591 364 643 q 300 459 300 538 q 370 380 300 380 q 452 432 420 380 q 484 564 484 484 q 416 643 484 643 m 102 -117 q 233 -195 102 -195 q 387 -164 334 -195 q 440 -78 440 -134 q 418 -37 440 -52 q 325 -14 396 -22 l 248 -4 q 139 -43 176 -14 q 102 -117 102 -72 z "},"h":{"ha":839,"x_min":25,"x_max":768,"o":"m 562 524 q 489 607 562 607 q 376 530 427 607 q 296 314 326 453 l 229 0 l 25 0 l 249 1055 l 453 1055 l 412 867 q 354 657 399 804 l 359 657 q 572 772 452 772 q 717 716 666 772 q 768 554 768 659 q 753 432 768 506 l 663 0 l 458 0 l 551 443 q 562 524 562 487 z "},"i":{"ha":412,"x_min":25,"x_max":443,"o":"m 218 936 q 250 1025 218 994 q 336 1055 282 1055 q 443 974 443 1055 q 412 885 443 918 q 321 852 382 852 q 218 936 218 852 m 25 0 l 186 758 l 390 758 l 229 0 l 25 0 z "},"j":{"ha":412,"x_min":-179,"x_max":444,"o":"m 220 936 q 252 1025 220 994 q 338 1055 283 1055 q 444 974 444 1055 q 414 885 444 918 q 322 852 383 852 q 220 936 220 852 m -61 -334 q -179 -317 -132 -334 l -179 -153 q -102 -167 -137 -167 q 16 -52 -9 -167 l 187 758 l 392 758 l 212 -82 q -61 -334 160 -334 z "},"k":{"ha":789,"x_min":25,"x_max":857,"o":"m 857 758 l 519 416 l 713 0 l 485 0 l 361 285 l 279 236 l 229 0 l 25 0 l 249 1055 l 453 1055 l 353 585 q 333 505 349 561 l 314 436 l 317 436 l 624 758 l 857 758 z "},"l":{"ha":412,"x_min":25,"x_max":453,"o":"m 25 0 l 249 1055 l 453 1055 l 229 0 l 25 0 z "},"m":{"ha":1257,"x_min":25,"x_max":1186,"o":"m 332 618 q 575 772 430 772 q 750 618 720 772 l 754 618 q 863 732 800 692 q 997 772 926 772 q 1137 715 1088 772 q 1186 554 1186 658 q 1171 432 1186 504 l 1080 0 l 876 0 l 970 443 q 981 524 981 487 q 914 607 981 607 q 801 531 852 607 q 721 315 751 455 l 656 0 l 452 0 l 545 443 q 555 524 555 487 q 489 607 555 607 q 376 530 427 607 q 296 314 326 453 l 229 0 l 25 0 l 186 758 l 342 758 l 328 618 l 332 618 z "},"n":{"ha":839,"x_min":25,"x_max":768,"o":"m 562 524 q 489 607 562 607 q 376 530 427 607 q 296 314 326 453 l 229 0 l 25 0 l 186 758 l 342 758 l 328 618 l 332 618 q 572 772 430 772 q 717 716 666 772 q 768 554 768 659 q 753 432 768 506 l 663 0 l 458 0 l 551 443 q 562 524 562 487 z "},"o":{"ha":812,"x_min":61,"x_max":751,"o":"m 751 467 q 644 120 751 254 q 359 -14 536 -14 q 351 -14 355 -14 q 140 66 219 -14 q 61 284 61 146 q 109 535 61 421 q 250 711 158 649 q 469 772 342 772 q 674 692 597 772 q 751 472 751 612 q 751 467 751 469 m 546 472 q 449 606 546 606 q 357 564 398 606 q 292 442 317 521 q 267 278 267 363 q 368 153 267 153 q 460 194 419 153 q 523 310 500 236 q 546 472 546 383 z "},"p":{"ha":827,"x_min":-46,"x_max":765,"o":"m 551 772 q 707 699 650 772 q 765 497 765 627 q 719 247 765 366 q 592 57 672 127 q 414 -14 511 -14 q 316 12 356 -14 q 241 97 275 37 l 236 97 q 207 -103 228 -12 l 158 -334 l -46 -334 l 186 758 l 342 758 l 330 643 l 336 643 q 551 772 430 772 m 468 607 q 380 562 423 607 q 311 440 337 517 q 285 279 285 363 q 285 271 285 275 q 310 183 285 216 q 380 151 335 151 q 466 197 425 151 q 532 327 507 243 q 558 488 558 410 q 469 607 558 607 q 468 607 469 607 z "},"q":{"ha":825,"x_min":61,"x_max":802,"o":"m 265 -14 q 117 60 174 -14 q 61 264 61 133 q 110 518 61 396 q 238 705 159 640 q 412 772 317 772 q 517 747 472 772 q 600 661 562 721 l 606 661 l 644 758 l 802 758 l 570 -334 l 366 -334 l 415 -104 q 472 102 433 -22 l 467 102 q 371 13 419 39 q 265 -14 323 -14 m 268 280 q 268 246 268 280 q 292 181 268 212 q 361 151 317 151 q 449 199 406 151 q 517 322 492 247 q 542 488 542 397 q 516 575 542 543 q 446 607 491 607 q 359 559 400 607 q 293 430 318 511 q 268 280 268 349 z "},"r":{"ha":585,"x_min":25,"x_max":636,"o":"m 571 772 q 636 765 610 772 l 591 568 q 524 579 562 579 q 385 517 446 579 q 301 339 327 455 l 229 0 l 25 0 l 186 758 l 342 758 l 328 618 l 332 618 q 571 772 431 772 z "},"s":{"ha":657,"x_min":16,"x_max":629,"o":"m 387 619 q 325 602 349 619 q 301 557 301 585 q 323 509 301 529 q 404 458 345 488 q 525 366 487 416 q 562 250 562 316 q 478 55 562 123 q 248 -14 393 -14 q 16 31 102 -14 l 16 199 q 232 138 123 138 q 321 160 287 138 q 355 220 355 182 q 331 272 355 249 q 233 335 306 294 q 127 422 159 376 q 94 530 94 468 q 170 709 94 646 q 382 772 245 772 q 629 708 519 772 l 562 562 q 387 619 468 619 z "},"t":{"ha":570,"x_min":64,"x_max":596,"o":"m 289 201 q 349 151 289 151 q 458 175 391 151 l 458 22 q 279 -14 382 -14 q 129 29 176 -14 q 81 161 81 72 q 89 237 81 195 l 167 603 l 64 603 l 83 703 l 216 760 l 306 920 l 437 920 l 404 758 l 596 758 l 562 603 l 371 603 l 293 237 q 289 201 289 217 z "},"u":{"ha":839,"x_min":75,"x_max":815,"o":"m 278 235 q 351 151 278 151 q 464 228 414 151 q 545 444 515 305 l 611 758 l 815 758 l 654 0 l 498 0 l 513 140 l 509 140 q 268 -14 410 -14 q 125 42 174 -14 q 75 204 75 98 q 92 349 75 267 l 178 758 l 382 758 l 289 315 q 278 235 278 271 z "},"v":{"ha":711,"x_min":69,"x_max":791,"o":"m 304 204 l 309 204 q 371 355 347 311 l 572 758 l 791 758 l 382 0 l 163 0 l 69 758 l 269 758 l 300 361 q 304 204 304 276 z "},"w":{"ha":1095,"x_min":85,"x_max":1165,"o":"m 278 758 l 278 422 l 275 309 l 271 193 l 273 193 l 283 221 q 316 311 286 231 q 349 395 347 392 l 505 758 l 728 758 l 728 395 q 721 193 728 293 l 725 193 l 744 248 q 808 422 796 395 l 957 758 l 1165 758 l 806 0 l 582 0 l 578 353 q 585 583 578 464 l 581 583 q 497 367 539 464 l 339 0 l 119 0 l 85 758 l 278 758 z "},"x":{"ha":737,"x_min":-68,"x_max":806,"o":"m 104 758 l 322 758 l 400 532 l 566 758 l 806 758 l 489 378 l 654 0 l 433 0 l 349 232 l 170 0 l -68 0 l 257 389 l 104 758 z "},"y":{"ha":721,"x_min":-96,"x_max":793,"o":"m 317 208 l 321 208 q 338 256 326 222 q 395 393 365 331 l 571 758 l 793 758 l 332 -109 q 4 -334 212 -334 q -96 -321 -58 -334 l -96 -158 q -17 -167 -52 -167 q 83 -135 40 -167 q 163 -33 126 -102 l 180 0 l 69 758 l 269 758 l 307 407 q 317 208 317 321 z "},"z":{"ha":632,"x_min":-32,"x_max":656,"o":"m -32 0 l -8 122 l 382 600 l 113 600 l 147 758 l 656 758 l 627 623 l 243 158 l 541 158 l 507 0 l -32 0 z "},"{":{"ha":493,"x_min":-5,"x_max":589,"o":"m 136 216 q -5 311 136 311 l 25 467 q 157 495 110 467 q 218 589 204 524 l 260 782 q 348 944 286 897 q 532 991 411 991 l 589 991 l 555 839 q 467 816 495 838 q 429 743 439 794 l 385 542 q 197 382 354 401 l 197 376 q 311 229 311 341 q 301 153 311 199 l 277 32 q 272 -3 272 14 q 293 -52 272 -37 q 357 -66 315 -66 l 357 -220 l 321 -220 q 149 -177 208 -220 q 90 -52 90 -134 q 100 33 90 -14 l 126 158 q 136 216 136 205 z "},"|":{"ha":765,"x_min":309,"x_max":457,"o":"m 457 1051 l 457 -315 l 309 -315 l 309 1051 l 457 1051 z "},"}":{"ha":493,"x_min":-68,"x_max":500,"o":"m 174 991 q 404 823 404 991 q 395 739 404 787 l 368 614 q 358 555 358 567 q 500 461 358 461 l 469 306 q 338 277 385 306 q 277 183 291 248 l 235 -9 q 146 -172 209 -125 q -37 -220 83 -220 l -68 -220 l -68 -66 q 25 -42 -5 -64 q 65 29 55 -20 l 110 231 q 173 342 126 304 q 297 390 220 380 l 297 396 q 183 543 183 431 q 193 619 183 572 l 218 741 q 222 775 222 761 q 199 825 222 810 q 123 839 175 839 l 151 991 l 174 991 z "},"~":{"ha":765,"x_min":74,"x_max":720,"o":"m 546 375 q 472 382 507 375 q 374 417 437 391 q 286 450 311 444 q 228 456 260 456 q 154 433 196 456 q 74 374 111 411 l 74 530 q 248 604 142 604 q 326 595 290 604 q 436 555 362 586 q 561 524 509 524 q 720 606 636 524 l 720 449 q 546 375 650 375 z "},"¡":{"ha":397,"x_min":-50,"x_max":372,"o":"m 372 663 q 335 564 372 600 q 233 528 297 528 q 159 554 186 528 q 132 632 132 580 q 169 721 132 684 q 261 758 205 758 q 344 733 316 758 q 372 663 372 708 m 288 411 l 180 -252 l -50 -252 l 123 411 l 288 411 z "},"¢":{"ha":765,"x_min":111,"x_max":734,"o":"m 111 396 q 154 636 111 526 q 274 815 196 747 q 456 899 353 883 l 478 1006 l 606 1006 l 582 899 q 734 854 661 890 l 672 699 q 594 728 627 718 q 521 737 562 737 q 374 640 431 737 q 318 412 318 543 q 348 315 318 348 q 430 282 378 282 q 524 296 481 282 q 621 338 566 310 l 621 171 q 418 117 527 123 l 390 -14 l 262 -14 l 296 129 q 158 221 205 153 q 111 396 111 289 z "},"£":{"ha":765,"x_min":-8,"x_max":842,"o":"m 269 733 q 379 937 297 867 q 592 1007 461 1007 q 842 949 723 1007 l 765 791 q 610 838 669 838 q 520 810 552 838 q 475 721 488 783 l 443 566 l 646 566 l 615 416 l 412 416 l 400 359 q 258 176 372 227 l 703 176 l 665 0 l -8 0 l 25 167 q 191 346 158 199 l 205 416 l 75 416 l 106 566 l 236 566 l 269 733 z "},"¥":{"ha":765,"x_min":60,"x_max":875,"o":"m 664 991 l 875 991 l 532 485 l 669 485 l 643 364 l 472 364 l 453 271 l 624 271 l 599 150 l 428 150 l 396 0 l 199 0 l 231 150 l 60 150 l 85 271 l 256 271 l 275 364 l 104 364 l 131 485 l 264 485 l 134 991 l 335 991 l 412 591 l 664 991 z "},"§":{"ha":675,"x_min":14,"x_max":697,"o":"m 248 118 q 345 141 313 118 q 376 204 376 164 q 354 253 376 231 q 268 307 332 275 q 144 398 186 347 q 102 512 102 448 q 134 627 102 576 q 239 722 167 677 q 191 781 209 746 q 172 852 172 815 q 252 1011 172 954 q 456 1069 332 1069 q 697 1010 581 1069 l 642 879 q 447 936 542 936 q 353 864 353 936 q 379 813 353 836 q 467 764 406 791 q 631 561 631 691 q 500 353 631 431 q 561 221 561 296 q 475 49 561 112 q 246 -14 389 -14 q 14 37 103 -14 l 14 189 q 248 118 130 118 m 288 608 q 277 593 288 608 q 267 541 267 577 q 296 475 267 504 q 393 415 326 446 q 444 468 426 435 q 463 533 463 500 q 343 656 463 607 q 288 608 309 639 z "},"¨":{"ha":770,"x_min":269,"x_max":742,"o":"m 269 937 q 298 1017 269 989 q 379 1044 326 1044 q 469 971 469 1044 q 442 891 469 920 q 361 863 415 863 q 269 937 269 863 m 542 937 q 570 1017 542 990 q 647 1044 599 1044 q 742 971 742 1044 q 714 891 742 920 q 633 863 687 863 q 542 937 542 863 z "},"©":{"ha":1156,"x_min":85,"x_max":1104,"o":"m 594 -14 q 524 -14 594 -14 q 336 56 454 -14 q 151 243 217 126 q 85 496 85 361 q 153 750 85 631 q 340 938 221 869 q 594 1006 458 1006 q 848 939 730 1006 q 1035 751 967 871 q 1104 496 1104 632 q 1037 243 1104 361 q 853 56 971 125 q 594 -14 734 -14 m 387 853 q 339 826 387 853 q 235 702 290 798 q 180 495 180 606 q 235 289 180 385 q 388 138 292 193 q 595 82 484 82 q 803 138 707 82 q 954 290 899 194 q 1008 496 1008 385 q 954 701 1008 606 q 803 853 899 798 q 595 909 707 909 q 387 853 484 909 m 632 685 q 486 490 486 685 q 524 353 486 399 q 632 306 561 306 q 708 317 662 306 q 790 346 753 328 l 790 216 q 612 178 701 178 q 404 261 479 178 q 329 493 329 344 q 408 727 329 642 q 629 812 488 812 q 822 764 726 812 l 771 646 q 632 685 694 685 z "},"ª":{"ha":524,"x_min":103,"x_max":595,"o":"m 250 510 q 142 557 180 510 q 103 688 103 605 q 134 847 103 772 q 218 962 165 922 q 338 1003 271 1003 q 460 933 419 1003 l 464 933 l 490 994 l 595 994 l 488 518 l 383 518 l 389 581 l 387 581 q 250 510 333 510 m 300 612 q 357 641 330 612 q 401 723 384 669 q 419 827 419 776 q 359 899 419 899 q 275 833 310 899 q 241 690 241 768 q 300 612 241 612 z "},"«":{"ha":781,"x_min":49,"x_max":781,"o":"m 321 700 l 450 595 l 261 368 l 353 131 l 186 61 l 49 374 l 49 386 l 321 700 m 652 700 l 781 595 l 591 368 l 684 131 l 517 61 l 379 374 l 379 386 l 652 700 z "},"¬":{"ha":765,"x_min":74,"x_max":720,"o":"m 571 168 l 571 415 l 74 415 l 74 564 l 720 564 l 720 168 l 571 168 z "},"®":{"ha":1156,"x_min":85,"x_max":1104,"o":"m 594 -14 q 524 -14 594 -14 q 336 56 454 -14 q 151 243 217 126 q 85 496 85 361 q 153 750 85 631 q 340 938 221 869 q 594 1006 458 1006 q 848 939 730 1006 q 1035 751 967 871 q 1104 496 1104 632 q 1037 243 1104 361 q 853 56 971 125 q 594 -14 734 -14 m 387 853 q 339 826 387 853 q 235 702 290 798 q 180 495 180 606 q 235 289 180 385 q 388 138 292 193 q 595 82 484 82 q 803 138 707 82 q 954 290 899 194 q 1008 496 1008 385 q 954 701 1008 606 q 803 853 899 798 q 595 909 707 909 q 387 853 484 909 m 387 791 l 596 791 q 777 745 714 791 q 839 610 839 699 q 721 443 839 488 l 854 199 l 682 199 l 589 400 l 543 400 l 543 199 l 387 199 l 387 791 m 543 514 l 578 514 q 655 535 627 514 q 682 597 682 557 q 658 658 682 638 q 579 677 633 677 l 543 677 l 543 514 z "},"¯":{"ha":694,"x_min":-4,"x_max":729,"o":"m -4 1055 l 26 1192 l 729 1192 l 699 1055 l -4 1055 z "},"°":{"ha":595,"x_min":111,"x_max":581,"o":"m 111 778 q 181 937 111 868 q 339 1006 250 1006 q 346 1006 342 1006 q 351 1006 349 1006 q 464 974 410 1006 q 549 888 518 942 q 581 776 581 834 q 581 771 581 774 q 581 764 581 768 q 512 606 581 674 q 353 538 444 538 q 339 538 346 538 q 180 606 249 538 q 111 764 111 673 q 111 771 111 768 q 111 778 111 774 m 271 697 q 347 667 302 667 q 421 698 391 667 q 452 772 452 730 q 421 846 452 814 q 346 878 390 878 q 271 846 302 878 q 240 771 240 814 q 271 697 240 729 z "},"±":{"ha":765,"x_min":74,"x_max":720,"o":"m 74 457 l 74 606 l 322 606 l 322 856 l 471 856 l 471 606 l 720 606 l 720 457 l 471 457 l 471 210 l 322 210 l 322 457 l 74 457 m 74 149 l 720 149 l 720 0 l 74 0 l 74 149 z "},"´":{"ha":770,"x_min":328,"x_max":705,"o":"m 328 842 l 328 859 q 478 1064 381 918 l 705 1064 l 705 1053 q 600 948 673 1014 q 469 842 527 883 l 328 842 z "},"¶":{"ha":909,"x_min":100,"x_max":815,"o":"m 705 -176 l 705 920 l 593 920 l 593 -176 l 484 -176 l 484 379 q 385 367 441 367 q 169 451 239 367 q 100 709 100 535 q 174 969 100 882 q 406 1055 248 1055 l 815 1055 l 815 -176 l 705 -176 z "},"·":{"ha":396,"x_min":89,"x_max":329,"o":"m 89 471 q 125 569 89 533 q 227 606 162 606 q 301 579 274 606 q 329 507 329 553 q 291 412 329 448 q 199 375 254 375 q 117 400 144 375 q 89 471 89 426 z "},"¸":{"ha":285,"x_min":-140,"x_max":178,"o":"m 178 -170 q 121 -291 178 -248 q -37 -334 65 -334 q -140 -318 -95 -334 l -140 -204 q -56 -220 -97 -220 q 14 -164 14 -220 q -82 -104 14 -115 l -17 0 l 109 0 l 82 -49 q 178 -170 178 -83 z "},"º":{"ha":511,"x_min":110,"x_max":549,"o":"m 368 1003 q 502 953 456 1003 q 549 813 549 903 q 516 652 549 722 q 426 546 483 582 q 293 510 370 510 q 156 561 203 510 q 110 704 110 611 q 180 920 110 838 q 368 1003 251 1003 m 354 892 q 281 832 311 892 q 252 696 252 772 q 306 621 252 621 q 377 679 349 621 q 406 819 406 736 q 354 892 406 892 z "},"»":{"ha":781,"x_min":0,"x_max":732,"o":"m 129 49 l 0 154 l 189 380 l 97 618 l 264 688 l 401 375 l 401 363 l 129 49 m 460 49 l 330 154 l 519 380 l 428 618 l 595 688 l 732 375 l 732 363 l 460 49 z "},"¿":{"ha":637,"x_min":-46,"x_max":524,"o":"m 524 663 q 486 564 524 600 q 385 528 448 528 q 311 554 338 528 q 283 632 283 580 q 320 722 283 685 q 413 758 358 758 q 495 733 467 758 q 524 663 524 708 m 154 -18 q 244 -98 154 -98 q 317 -87 279 -98 q 453 -31 354 -77 l 515 -180 q 214 -265 366 -265 q 24 -206 94 -265 q -46 -40 -46 -146 q 30 144 -46 66 q 144 235 68 184 q 245 316 220 286 q 279 389 268 347 l 285 411 l 460 411 l 450 358 q 398 235 437 286 q 279 131 359 185 q 177 48 199 77 q 154 -18 154 19 z "},"À":{"ha":872,"x_min":-83,"x_max":789,"o":"m 530 1071 q 366 1279 415 1183 l 366 1293 l 576 1293 q 654 1088 601 1192 l 654 1071 l 530 1071 m 134 0 l -83 0 l 436 996 l 689 996 l 789 0 l 587 0 l 571 236 l 250 236 l 134 0 m 536 821 l 536 846 q 463 673 509 768 l 335 412 l 561 412 l 543 650 q 536 821 536 734 z "},"Á":{"ha":872,"x_min":-83,"x_max":876,"o":"m 498 1071 l 498 1088 q 649 1293 552 1147 l 876 1293 l 876 1282 q 771 1178 844 1243 q 640 1071 698 1112 l 498 1071 m 134 0 l -83 0 l 436 996 l 689 996 l 789 0 l 587 0 l 571 236 l 250 236 l 134 0 m 536 821 l 536 846 q 463 673 509 768 l 335 412 l 561 412 l 543 650 q 536 821 536 734 z "},"Â":{"ha":872,"x_min":-83,"x_max":838,"o":"m 718 1293 q 838 1088 755 1206 l 838 1071 l 703 1071 q 593 1185 661 1107 q 436 1071 522 1124 l 289 1071 l 289 1088 q 392 1187 332 1126 q 489 1293 452 1247 l 718 1293 m 134 0 l -83 0 l 436 996 l 689 996 l 789 0 l 587 0 l 571 236 l 250 236 l 134 0 m 536 821 l 536 846 q 463 673 509 768 l 335 412 l 561 412 l 543 650 q 536 821 536 734 z "},"Ã":{"ha":872,"x_min":-83,"x_max":872,"o":"m 677 1071 q 619 1082 648 1071 q 571 1107 590 1093 q 488 1142 521 1142 q 450 1123 467 1142 q 424 1069 433 1104 l 304 1069 q 494 1279 343 1279 q 554 1268 524 1279 q 602 1244 583 1257 q 685 1208 652 1208 q 724 1225 707 1208 q 755 1280 741 1242 l 872 1280 q 677 1071 827 1071 m 134 0 l -83 0 l 436 996 l 689 996 l 789 0 l 587 0 l 571 236 l 250 236 l 134 0 m 536 821 l 536 846 q 463 673 509 768 l 335 412 l 561 412 l 543 650 q 536 821 536 734 z "},"Ä":{"ha":872,"x_min":-83,"x_max":823,"o":"m 350 1166 q 378 1246 350 1219 q 460 1274 407 1274 q 550 1200 550 1274 q 523 1121 550 1149 q 441 1092 496 1092 q 350 1166 350 1092 m 623 1166 q 651 1246 623 1219 q 728 1274 680 1274 q 823 1200 823 1274 q 795 1121 823 1149 q 714 1092 768 1092 q 623 1166 623 1092 m 134 0 l -83 0 l 436 996 l 689 996 l 789 0 l 587 0 l 571 236 l 250 236 l 134 0 m 536 821 l 536 846 q 463 673 509 768 l 335 412 l 561 412 l 543 650 q 536 821 536 734 z "},"Å":{"ha":872,"x_min":-83,"x_max":789,"o":"m 397 1061 q 443 1178 397 1135 q 564 1222 489 1222 q 688 1178 639 1222 q 737 1064 737 1135 q 694 949 737 993 l 789 0 l 587 0 l 571 236 l 250 236 l 134 0 l -83 0 l 422 968 q 397 1061 397 1006 m 612 1109 q 603 1118 612 1109 q 565 1126 594 1126 q 518 1109 536 1126 q 500 1061 500 1091 q 516 1013 500 1030 q 564 996 533 996 q 612 1014 594 996 q 631 1061 631 1031 q 612 1109 631 1091 m 536 821 l 536 846 q 463 673 509 768 l 335 412 l 561 412 l 543 650 q 536 821 536 734 z "},"Æ":{"ha":1243,"x_min":-83,"x_max":1291,"o":"m 526 0 l 576 236 l 288 236 l 139 0 l -83 0 l 542 991 l 1291 991 l 1254 819 l 907 819 l 861 602 l 1185 602 l 1147 429 l 823 429 l 770 174 l 1117 174 l 1080 0 l 526 0 m 700 819 l 646 819 l 399 412 l 614 412 l 700 819 z "},"Ç":{"ha":850,"x_min":83,"x_max":905,"o":"m 614 832 q 453 778 525 832 q 338 616 382 723 q 294 391 294 509 q 341 217 294 272 q 488 163 388 163 q 718 215 587 163 l 718 39 q 484 -13 599 -7 l 464 -49 q 559 -170 559 -83 q 503 -291 559 -248 q 345 -334 447 -334 q 241 -318 287 -334 l 241 -204 q 326 -220 285 -220 q 395 -164 395 -220 q 300 -104 395 -115 l 361 -6 q 179 87 249 14 q 83 370 83 189 q 154 701 83 551 q 342 929 224 851 q 614 1007 460 1007 q 764 991 696 1007 q 905 936 831 976 l 825 766 q 707 819 753 806 q 614 832 661 832 z "},"È":{"ha":753,"x_min":36,"x_max":800,"o":"m 490 1071 q 326 1279 375 1183 l 326 1293 l 536 1293 q 614 1088 561 1192 l 614 1071 l 490 1071 m 245 991 l 800 991 l 764 819 l 416 819 l 371 602 l 694 602 l 657 429 l 334 429 l 279 174 l 627 174 l 590 0 l 36 0 l 245 991 z "},"É":{"ha":753,"x_min":36,"x_max":800,"o":"m 412 1071 l 412 1088 q 563 1293 467 1147 l 790 1293 l 790 1282 q 685 1178 758 1243 q 554 1071 612 1112 l 412 1071 m 245 991 l 800 991 l 764 819 l 416 819 l 371 602 l 694 602 l 657 429 l 334 429 l 279 174 l 627 174 l 590 0 l 36 0 l 245 991 z "},"Ê":{"ha":753,"x_min":36,"x_max":800,"o":"m 679 1293 q 798 1088 715 1206 l 798 1071 l 664 1071 q 554 1185 621 1107 q 397 1071 482 1124 l 250 1071 l 250 1088 q 353 1187 292 1126 q 450 1293 413 1247 l 679 1293 m 245 991 l 800 991 l 764 819 l 416 819 l 371 602 l 694 602 l 657 429 l 334 429 l 279 174 l 627 174 l 590 0 l 36 0 l 245 991 z "},"Ë":{"ha":753,"x_min":36,"x_max":800,"o":"m 297 1166 q 326 1246 297 1219 q 407 1274 354 1274 q 497 1200 497 1274 q 470 1121 497 1149 q 389 1092 443 1092 q 297 1166 297 1092 m 570 1166 q 598 1246 570 1219 q 675 1274 627 1274 q 770 1200 770 1274 q 742 1121 770 1149 q 661 1092 715 1092 q 570 1166 570 1092 m 245 991 l 800 991 l 764 819 l 416 819 l 371 602 l 694 602 l 657 429 l 334 429 l 279 174 l 627 174 l 590 0 l 36 0 l 245 991 z "},"Ì":{"ha":447,"x_min":36,"x_max":454,"o":"m 328 1071 q 163 1279 213 1183 l 163 1293 l 374 1293 q 452 1088 399 1192 l 452 1071 l 328 1071 m 454 991 l 243 0 l 36 0 l 248 991 l 454 991 z "},"Í":{"ha":447,"x_min":36,"x_max":659,"o":"m 281 1071 l 281 1088 q 431 1293 335 1147 l 659 1293 l 659 1282 q 553 1178 626 1243 q 422 1071 480 1112 l 281 1071 m 454 991 l 243 0 l 36 0 l 248 991 l 454 991 z "},"Î":{"ha":447,"x_min":36,"x_max":635,"o":"m 516 1293 q 635 1088 553 1206 l 635 1071 l 501 1071 q 391 1185 458 1107 q 234 1071 319 1124 l 87 1071 l 87 1088 q 190 1187 130 1126 q 287 1293 250 1247 l 516 1293 m 454 991 l 243 0 l 36 0 l 248 991 l 454 991 z "},"Ï":{"ha":447,"x_min":36,"x_max":623,"o":"m 151 1166 q 179 1246 151 1219 q 260 1274 208 1274 q 351 1200 351 1274 q 323 1121 351 1149 q 242 1092 296 1092 q 151 1166 151 1092 m 423 1166 q 452 1246 423 1219 q 529 1274 480 1274 q 623 1200 623 1274 q 596 1121 623 1149 q 515 1092 568 1092 q 423 1166 423 1092 m 454 991 l 243 0 l 36 0 l 248 991 l 454 991 z "},"Ñ":{"ha":1048,"x_min":36,"x_max":1055,"o":"m 755 1071 q 697 1082 726 1071 q 650 1107 668 1093 q 566 1142 599 1142 q 528 1123 545 1142 q 502 1069 511 1104 l 382 1069 q 572 1279 422 1279 q 632 1268 602 1279 q 680 1244 661 1257 q 763 1208 730 1208 q 802 1225 785 1208 q 833 1280 819 1242 l 950 1280 q 755 1071 905 1071 m 372 750 l 368 750 l 366 728 q 321 467 344 581 l 222 0 l 36 0 l 245 991 l 488 991 l 718 261 l 721 261 q 748 409 729 311 q 869 991 766 507 l 1055 991 l 846 0 l 614 0 l 372 750 z "},"Ò":{"ha":1014,"x_min":83,"x_max":971,"o":"m 589 1071 q 425 1279 475 1183 l 425 1293 l 636 1293 q 714 1088 661 1192 l 714 1071 l 589 1071 m 971 636 q 904 293 971 444 q 721 64 838 142 q 452 -14 605 -14 q 180 86 278 -14 q 83 366 83 187 q 151 695 83 544 q 336 926 218 846 q 608 1007 454 1007 q 876 909 781 1007 q 971 636 971 811 m 760 631 q 715 780 760 727 q 590 832 671 832 q 441 770 509 832 q 333 599 372 707 q 294 364 294 491 q 339 214 294 265 q 466 163 384 163 q 616 222 549 163 q 722 389 684 281 q 760 631 760 497 z "},"Ó":{"ha":1014,"x_min":83,"x_max":971,"o":"m 511 1071 l 511 1088 q 661 1293 564 1147 l 888 1293 l 888 1282 q 783 1178 856 1243 q 652 1071 710 1112 l 511 1071 m 971 636 q 904 293 971 444 q 721 64 838 142 q 452 -14 605 -14 q 180 86 278 -14 q 83 366 83 187 q 151 695 83 544 q 336 926 218 846 q 608 1007 454 1007 q 876 909 781 1007 q 971 636 971 811 m 760 631 q 715 780 760 727 q 590 832 671 832 q 441 770 509 832 q 333 599 372 707 q 294 364 294 491 q 339 214 294 265 q 466 163 384 163 q 616 222 549 163 q 722 389 684 281 q 760 631 760 497 z "},"Ô":{"ha":1014,"x_min":83,"x_max":971,"o":"m 768 1293 q 887 1088 804 1206 l 887 1071 l 753 1071 q 643 1185 710 1107 q 486 1071 571 1124 l 338 1071 l 338 1088 q 441 1187 381 1126 q 538 1293 502 1247 l 768 1293 m 971 636 q 904 293 971 444 q 721 64 838 142 q 452 -14 605 -14 q 180 86 278 -14 q 83 366 83 187 q 151 695 83 544 q 336 926 218 846 q 608 1007 454 1007 q 876 909 781 1007 q 971 636 971 811 m 760 631 q 715 780 760 727 q 590 832 671 832 q 441 770 509 832 q 333 599 372 707 q 294 364 294 491 q 339 214 294 265 q 466 163 384 163 q 616 222 549 163 q 722 389 684 281 q 760 631 760 497 z "},"Õ":{"ha":1014,"x_min":83,"x_max":971,"o":"m 726 1071 q 668 1082 696 1071 q 620 1107 639 1093 q 536 1142 570 1142 q 499 1123 515 1142 q 473 1069 482 1104 l 353 1069 q 543 1279 392 1279 q 603 1268 573 1279 q 651 1244 632 1257 q 734 1208 701 1208 q 773 1225 756 1208 q 804 1280 789 1242 l 921 1280 q 726 1071 876 1071 m 971 636 q 904 293 971 444 q 721 64 838 142 q 452 -14 605 -14 q 180 86 278 -14 q 83 366 83 187 q 151 695 83 544 q 336 926 218 846 q 608 1007 454 1007 q 876 909 781 1007 q 971 636 971 811 m 760 631 q 715 780 760 727 q 590 832 671 832 q 441 770 509 832 q 333 599 372 707 q 294 364 294 491 q 339 214 294 265 q 466 163 384 163 q 616 222 549 163 q 722 389 684 281 q 760 631 760 497 z "},"Ö":{"ha":1014,"x_min":83,"x_max":971,"o":"m 397 1166 q 425 1246 397 1219 q 507 1274 454 1274 q 597 1200 597 1274 q 570 1121 597 1149 q 488 1092 543 1092 q 397 1166 397 1092 m 669 1166 q 698 1246 669 1219 q 774 1274 726 1274 q 869 1200 869 1274 q 842 1121 869 1149 q 761 1092 814 1092 q 669 1166 669 1092 m 971 636 q 904 293 971 444 q 721 64 838 142 q 452 -14 605 -14 q 180 86 278 -14 q 83 366 83 187 q 151 695 83 544 q 336 926 218 846 q 608 1007 454 1007 q 876 909 781 1007 q 971 636 971 811 m 760 631 q 715 780 760 727 q 590 832 671 832 q 441 770 509 832 q 333 599 372 707 q 294 364 294 491 q 339 214 294 265 q 466 163 384 163 q 616 222 549 163 q 722 389 684 281 q 760 631 760 497 z "},"Ø":{"ha":1014,"x_min":68,"x_max":989,"o":"m 971 636 q 904 293 971 444 q 721 64 838 142 q 452 -14 605 -14 q 245 35 330 -14 l 172 -58 l 68 20 l 150 122 q 83 364 83 216 q 151 695 83 544 q 336 926 218 846 q 608 1007 454 1007 q 815 956 732 1007 l 886 1044 l 989 965 l 909 867 q 971 636 971 777 m 590 836 q 435 774 505 836 q 326 603 365 712 q 288 364 288 494 q 293 296 288 346 l 697 807 q 590 836 651 836 m 473 158 q 623 218 554 158 q 730 385 691 278 q 768 618 768 492 q 768 631 768 624 l 765 685 l 366 183 q 469 158 405 158 q 473 158 471 158 z "},"Ù":{"ha":960,"x_min":96,"x_max":972,"o":"m 555 1071 q 391 1279 440 1183 l 391 1293 l 602 1293 q 680 1088 626 1192 l 680 1071 l 555 1071 m 404 -14 q 178 63 260 -14 q 96 272 96 140 q 106 366 96 321 l 239 991 l 446 991 l 314 368 q 302 283 302 317 q 431 163 302 163 q 562 214 513 163 q 633 370 611 265 l 765 991 l 972 991 l 836 350 q 688 78 798 170 q 404 -14 579 -14 z "},"Ú":{"ha":960,"x_min":96,"x_max":972,"o":"m 513 1071 l 513 1088 q 664 1293 567 1147 l 891 1293 l 891 1282 q 786 1178 859 1243 q 655 1071 713 1112 l 513 1071 m 404 -14 q 178 63 260 -14 q 96 272 96 140 q 106 366 96 321 l 239 991 l 446 991 l 314 368 q 302 283 302 317 q 431 163 302 163 q 562 214 513 163 q 633 370 611 265 l 765 991 l 972 991 l 836 350 q 688 78 798 170 q 404 -14 579 -14 z "},"Û":{"ha":960,"x_min":96,"x_max":972,"o":"m 751 1293 q 871 1088 788 1206 l 871 1071 l 736 1071 q 627 1185 694 1107 q 469 1071 555 1124 l 322 1071 l 322 1088 q 425 1187 365 1126 q 522 1293 486 1247 l 751 1293 m 404 -14 q 178 63 260 -14 q 96 272 96 140 q 106 366 96 321 l 239 991 l 446 991 l 314 368 q 302 283 302 317 q 431 163 302 163 q 562 214 513 163 q 633 370 611 265 l 765 991 l 972 991 l 836 350 q 688 78 798 170 q 404 -14 579 -14 z "},"Ü":{"ha":960,"x_min":96,"x_max":972,"o":"m 383 1166 q 412 1246 383 1219 q 493 1274 440 1274 q 583 1200 583 1274 q 556 1121 583 1149 q 475 1092 529 1092 q 383 1166 383 1092 m 656 1166 q 684 1246 656 1219 q 761 1274 713 1274 q 856 1200 856 1274 q 828 1121 856 1149 q 747 1092 801 1092 q 656 1166 656 1092 m 404 -14 q 178 63 260 -14 q 96 272 96 140 q 106 366 96 321 l 239 991 l 446 991 l 314 368 q 302 283 302 317 q 431 163 302 163 q 562 214 513 163 q 633 370 611 265 l 765 991 l 972 991 l 836 350 q 688 78 798 170 q 404 -14 579 -14 z "},"ß":{"ha":916,"x_min":-176,"x_max":882,"o":"m 574 1063 q 798 1002 715 1063 q 882 839 882 941 q 848 708 882 761 q 728 606 814 655 q 663 559 678 577 q 647 524 647 541 q 662 488 647 506 q 715 441 677 470 q 813 339 787 386 q 839 237 839 293 q 755 54 839 122 q 526 -14 672 -14 q 325 28 399 -14 l 325 191 q 500 138 411 138 q 599 159 566 138 q 632 218 632 181 q 614 269 632 245 q 536 339 595 294 q 453 424 476 384 q 429 514 429 463 q 459 607 429 566 q 570 693 490 648 q 643 747 618 720 q 667 813 667 773 q 639 877 667 853 q 550 901 612 901 q 449 865 489 901 q 392 750 408 829 l 220 -77 q 121 -272 191 -210 q -68 -334 51 -334 q -176 -317 -130 -334 l -176 -153 q -98 -167 -134 -167 q 17 -46 -8 -167 l 189 772 q 313 994 221 924 q 574 1063 404 1063 z "},"à":{"ha":825,"x_min":61,"x_max":802,"o":"m 465 842 q 300 1050 350 954 l 300 1064 l 511 1064 q 589 859 536 962 l 589 842 l 465 842 m 275 -14 q 118 58 176 -14 q 61 263 61 131 q 110 518 61 396 q 238 705 159 640 q 412 772 317 772 q 600 661 546 772 l 606 661 l 644 758 l 802 758 l 640 0 l 485 0 l 494 98 l 492 98 q 275 -14 401 -14 m 357 151 q 445 196 402 151 q 515 319 488 240 q 542 487 542 398 q 542 496 542 492 q 516 575 542 544 q 445 607 490 607 q 359 559 400 607 q 293 430 318 511 q 268 271 268 349 q 355 151 268 151 q 357 151 356 151 z "},"á":{"ha":825,"x_min":61,"x_max":802,"o":"m 406 842 l 406 859 q 556 1064 460 918 l 783 1064 l 783 1053 q 678 948 751 1014 q 547 842 605 883 l 406 842 m 275 -14 q 118 58 176 -14 q 61 263 61 131 q 110 518 61 396 q 238 705 159 640 q 412 772 317 772 q 600 661 546 772 l 606 661 l 644 758 l 802 758 l 640 0 l 485 0 l 494 98 l 492 98 q 275 -14 401 -14 m 357 151 q 445 196 402 151 q 515 319 488 240 q 542 487 542 398 q 542 496 542 492 q 516 575 542 544 q 445 607 490 607 q 359 559 400 607 q 293 430 318 511 q 268 271 268 349 q 355 151 268 151 q 357 151 356 151 z "},"â":{"ha":825,"x_min":61,"x_max":802,"o":"m 640 1063 q 760 858 677 977 l 760 841 l 625 841 q 515 955 583 876 q 358 841 444 894 l 211 841 l 211 858 q 314 957 254 897 q 411 1063 374 1017 l 640 1063 m 275 -14 q 118 58 176 -14 q 61 263 61 131 q 110 518 61 396 q 238 705 159 640 q 412 772 317 772 q 600 661 546 772 l 606 661 l 644 758 l 802 758 l 640 0 l 485 0 l 494 98 l 492 98 q 275 -14 401 -14 m 357 151 q 445 196 402 151 q 515 319 488 240 q 542 487 542 398 q 542 496 542 492 q 516 575 542 544 q 445 607 490 607 q 359 559 400 607 q 293 430 318 511 q 268 271 268 349 q 355 151 268 151 q 357 151 356 151 z "},"ã":{"ha":825,"x_min":61,"x_max":802,"o":"m 600 842 q 541 853 570 842 q 494 878 512 864 q 410 913 443 913 q 372 894 389 913 q 346 840 355 875 l 226 840 q 416 1050 266 1050 q 476 1039 446 1050 q 524 1015 505 1028 q 607 979 574 979 q 646 996 629 979 q 677 1051 663 1013 l 794 1051 q 600 842 749 842 m 275 -14 q 118 58 176 -14 q 61 263 61 131 q 110 518 61 396 q 238 705 159 640 q 412 772 317 772 q 600 661 546 772 l 606 661 l 644 758 l 802 758 l 640 0 l 485 0 l 494 98 l 492 98 q 275 -14 401 -14 m 357 151 q 445 196 402 151 q 515 319 488 240 q 542 487 542 398 q 542 496 542 492 q 516 575 542 544 q 445 607 490 607 q 359 559 400 607 q 293 430 318 511 q 268 271 268 349 q 355 151 268 151 q 357 151 356 151 z "},"ä":{"ha":825,"x_min":61,"x_max":802,"o":"m 269 937 q 298 1017 269 989 q 379 1044 326 1044 q 469 971 469 1044 q 442 891 469 920 q 361 863 415 863 q 269 937 269 863 m 542 937 q 570 1017 542 990 q 647 1044 599 1044 q 742 971 742 1044 q 714 891 742 920 q 633 863 687 863 q 542 937 542 863 m 275 -14 q 118 58 176 -14 q 61 263 61 131 q 110 518 61 396 q 238 705 159 640 q 412 772 317 772 q 600 661 546 772 l 606 661 l 644 758 l 802 758 l 640 0 l 485 0 l 494 98 l 492 98 q 275 -14 401 -14 m 357 151 q 445 196 402 151 q 515 319 488 240 q 542 487 542 398 q 542 496 542 492 q 516 575 542 544 q 445 607 490 607 q 359 559 400 607 q 293 430 318 511 q 268 271 268 349 q 355 151 268 151 q 357 151 356 151 z "},"å":{"ha":825,"x_min":61,"x_max":802,"o":"m 646 885 q 523 840 598 840 q 400 883 447 840 q 353 1001 353 926 q 399 1119 353 1075 q 520 1162 446 1162 q 645 1118 595 1162 q 694 1002 694 1074 q 646 885 694 930 m 569 954 q 578 963 569 954 q 587 1002 587 972 q 569 1049 587 1031 q 522 1067 551 1067 q 474 1049 492 1067 q 456 1001 456 1031 q 473 953 456 970 q 520 936 490 936 q 569 954 551 936 m 275 -14 q 118 58 176 -14 q 61 263 61 131 q 110 518 61 396 q 238 705 159 640 q 412 772 317 772 q 600 661 546 772 l 606 661 l 644 758 l 802 758 l 640 0 l 485 0 l 494 98 l 492 98 q 275 -14 401 -14 m 357 151 q 445 196 402 151 q 515 319 488 240 q 542 487 542 398 q 542 496 542 492 q 516 575 542 544 q 445 607 490 607 q 359 559 400 607 q 293 430 318 511 q 268 271 268 349 q 355 151 268 151 q 357 151 356 151 z "},"æ":{"ha":1211,"x_min":61,"x_max":1177,"o":"m 818 -14 q 696 5 744 -14 q 616 64 648 23 l 606 0 l 478 0 l 488 98 l 484 98 q 385 13 435 39 q 271 -14 334 -14 q 116 60 172 -14 q 61 265 61 135 q 107 515 61 395 q 233 704 154 635 q 408 772 312 772 q 517 746 473 772 q 595 661 561 720 l 599 661 l 637 758 l 765 758 l 753 697 q 836 752 784 731 q 949 772 888 772 q 1116 715 1055 772 q 1177 566 1177 660 q 1063 370 1177 439 q 741 301 950 301 l 705 301 l 704 288 l 704 275 q 742 175 704 210 q 850 140 779 140 q 952 156 894 140 q 1063 199 1010 171 l 1063 45 q 818 -14 941 -14 m 758 439 q 922 471 863 439 q 981 561 981 504 q 909 625 981 625 q 797 571 850 625 q 728 439 744 517 l 758 439 m 351 151 q 442 197 400 151 q 509 321 484 243 q 534 488 534 400 q 511 575 534 544 q 443 607 488 607 q 356 560 397 607 q 291 434 315 513 q 268 271 268 355 q 290 182 268 214 q 351 151 312 151 z "},"ç":{"ha":671,"x_min":61,"x_max":685,"o":"m 468 607 q 440 607 468 607 q 366 563 412 607 q 294 444 319 519 q 268 282 268 368 q 298 184 268 218 q 380 151 329 151 q 474 165 432 151 q 571 207 517 179 l 571 40 q 367 -13 479 -9 l 347 -49 q 443 -170 443 -83 q 387 -291 443 -248 q 228 -334 330 -334 q 125 -318 170 -334 l 125 -204 q 210 -220 168 -220 q 279 -164 279 -220 q 183 -104 279 -115 l 247 -2 q 109 90 157 21 q 61 265 61 158 q 112 526 61 408 q 254 708 162 644 q 466 772 346 772 q 685 724 586 772 l 623 568 q 574 589 592 581 q 468 607 524 607 z "},"è":{"ha":774,"x_min":61,"x_max":739,"o":"m 451 842 q 287 1050 336 954 l 287 1064 l 498 1064 q 576 859 522 962 l 576 842 l 451 842 m 625 45 q 363 -14 507 -14 q 140 63 218 -14 q 61 280 61 140 q 117 536 61 421 q 268 711 173 650 q 485 772 363 772 q 672 717 606 772 q 739 566 739 662 q 626 370 739 439 q 302 301 513 301 l 268 301 l 267 287 l 267 273 q 302 176 267 211 q 399 140 337 140 q 511 154 462 140 q 625 199 559 168 l 625 45 m 321 439 q 484 471 425 439 q 543 561 543 504 q 472 625 543 625 q 359 571 412 625 q 290 439 307 517 l 321 439 z "},"é":{"ha":774,"x_min":61,"x_max":739,"o":"m 358 842 l 358 859 q 509 1064 412 918 l 736 1064 l 736 1053 q 630 948 703 1014 q 500 842 557 883 l 358 842 m 625 45 q 363 -14 507 -14 q 140 63 218 -14 q 61 280 61 140 q 117 536 61 421 q 268 711 173 650 q 485 772 363 772 q 672 717 606 772 q 739 566 739 662 q 626 370 739 439 q 302 301 513 301 l 268 301 l 267 287 l 267 273 q 302 176 267 211 q 399 140 337 140 q 511 154 462 140 q 625 199 559 168 l 625 45 m 321 439 q 484 471 425 439 q 543 561 543 504 q 472 625 543 625 q 359 571 412 625 q 290 439 307 517 l 321 439 z "},"ê":{"ha":774,"x_min":61,"x_max":747,"o":"m 627 1064 q 747 859 664 977 l 747 842 l 612 842 q 503 956 570 878 q 345 842 431 895 l 198 842 l 198 859 q 301 958 241 897 q 398 1064 361 1018 l 627 1064 m 625 45 q 363 -14 507 -14 q 140 63 218 -14 q 61 280 61 140 q 117 536 61 421 q 268 711 173 650 q 485 772 363 772 q 672 717 606 772 q 739 566 739 662 q 626 370 739 439 q 302 301 513 301 l 268 301 l 267 287 l 267 273 q 302 176 267 211 q 399 140 337 140 q 511 154 462 140 q 625 199 559 168 l 625 45 m 321 439 q 484 471 425 439 q 543 561 543 504 q 472 625 543 625 q 359 571 412 625 q 290 439 307 517 l 321 439 z "},"ë":{"ha":774,"x_min":61,"x_max":739,"o":"m 248 937 q 276 1017 248 989 q 357 1044 304 1044 q 448 971 448 1044 q 420 891 448 920 q 339 863 393 863 q 248 937 248 863 m 520 937 q 549 1017 520 990 q 625 1044 577 1044 q 720 971 720 1044 q 693 891 720 920 q 612 863 665 863 q 520 937 520 863 m 625 45 q 363 -14 507 -14 q 140 63 218 -14 q 61 280 61 140 q 117 536 61 421 q 268 711 173 650 q 485 772 363 772 q 672 717 606 772 q 739 566 739 662 q 626 370 739 439 q 302 301 513 301 l 268 301 l 267 287 l 267 273 q 302 176 267 211 q 399 140 337 140 q 511 154 462 140 q 625 199 559 168 l 625 45 m 321 439 q 484 471 425 439 q 543 561 543 504 q 472 625 543 625 q 359 571 412 625 q 290 439 307 517 l 321 439 z "},"ì":{"ha":412,"x_min":25,"x_max":393,"o":"m 268 842 q 104 1050 153 954 l 104 1064 l 315 1064 q 393 859 339 962 l 393 842 l 268 842 m 25 0 l 186 758 l 390 758 l 229 0 l 25 0 z "},"í":{"ha":412,"x_min":25,"x_max":575,"o":"m 197 842 l 197 859 q 348 1064 251 918 l 575 1064 l 575 1053 q 470 948 543 1014 q 339 842 397 883 l 197 842 m 186 758 l 390 758 l 229 0 l 25 0 l 186 758 z "},"î":{"ha":412,"x_min":24,"x_max":573,"o":"m 454 1064 q 573 859 490 977 l 573 842 l 439 842 q 329 956 396 878 q 172 842 257 895 l 24 842 l 24 859 q 127 958 67 897 q 224 1064 188 1018 l 454 1064 m 186 758 l 390 758 l 229 0 l 25 0 l 186 758 z "},"ï":{"ha":412,"x_min":25,"x_max":558,"o":"m 85 937 q 114 1017 85 989 q 195 1044 142 1044 q 286 971 286 1044 q 258 891 286 920 q 177 863 231 863 q 85 937 85 863 m 358 937 q 387 1017 358 990 q 464 1044 415 1044 q 558 971 558 1044 q 531 891 558 920 q 450 863 503 863 q 358 937 358 863 m 186 758 l 390 758 l 229 0 l 25 0 l 186 758 z "},"ñ":{"ha":839,"x_min":25,"x_max":811,"o":"m 616 842 q 558 853 587 842 q 510 878 529 864 q 427 913 460 913 q 389 894 406 913 q 363 840 372 875 l 243 840 q 433 1050 282 1050 q 493 1039 463 1050 q 541 1015 522 1028 q 624 979 591 979 q 663 996 646 979 q 694 1051 680 1013 l 811 1051 q 616 842 766 842 m 562 524 q 489 607 562 607 q 376 530 427 607 q 296 314 326 453 l 229 0 l 25 0 l 186 758 l 342 758 l 328 618 l 332 618 q 572 772 430 772 q 717 716 666 772 q 768 554 768 659 q 753 432 768 506 l 663 0 l 458 0 l 551 443 q 562 524 562 487 z "},"ò":{"ha":812,"x_min":61,"x_max":751,"o":"m 448 842 q 284 1050 334 954 l 284 1064 l 495 1064 q 573 859 519 962 l 573 842 l 448 842 m 751 467 q 644 120 751 254 q 359 -14 536 -14 q 351 -14 355 -14 q 140 66 219 -14 q 61 284 61 146 q 109 535 61 421 q 250 711 158 649 q 469 772 342 772 q 674 692 597 772 q 751 472 751 612 q 751 467 751 469 m 546 472 q 449 606 546 606 q 357 564 398 606 q 292 442 317 521 q 267 278 267 363 q 368 153 267 153 q 460 194 419 153 q 523 310 500 236 q 546 472 546 383 z "},"ó":{"ha":812,"x_min":61,"x_max":765,"o":"m 387 842 l 387 859 q 538 1064 441 918 l 765 1064 l 765 1053 q 660 948 732 1014 q 529 842 587 883 l 387 842 m 751 467 q 644 120 751 254 q 359 -14 536 -14 q 351 -14 355 -14 q 140 66 219 -14 q 61 284 61 146 q 109 535 61 421 q 250 711 158 649 q 469 772 342 772 q 674 692 597 772 q 751 472 751 612 q 751 467 751 469 m 546 472 q 449 606 546 606 q 357 564 398 606 q 292 442 317 521 q 267 278 267 363 q 368 153 267 153 q 460 194 419 153 q 523 310 500 236 q 546 472 546 383 z "},"ô":{"ha":812,"x_min":61,"x_max":752,"o":"m 633 1064 q 752 859 669 977 l 752 842 l 618 842 q 508 956 575 878 q 351 842 436 895 l 203 842 l 203 859 q 307 958 246 897 q 404 1064 367 1018 l 633 1064 m 751 467 q 644 120 751 254 q 359 -14 536 -14 q 351 -14 355 -14 q 140 66 219 -14 q 61 284 61 146 q 109 535 61 421 q 250 711 158 649 q 469 772 342 772 q 674 692 597 772 q 751 472 751 612 q 751 467 751 469 m 546 472 q 449 606 546 606 q 357 564 398 606 q 292 442 317 521 q 267 278 267 363 q 368 153 267 153 q 460 194 419 153 q 523 310 500 236 q 546 472 546 383 z "},"õ":{"ha":812,"x_min":61,"x_max":781,"o":"m 587 842 q 528 853 557 842 q 480 878 499 864 q 397 913 430 913 q 359 894 376 913 q 333 840 342 875 l 213 840 q 404 1050 252 1050 q 463 1039 433 1050 q 511 1015 492 1028 q 594 979 561 979 q 633 996 616 979 q 665 1051 650 1013 l 781 1051 q 587 842 736 842 m 751 467 q 644 120 751 254 q 359 -14 536 -14 q 351 -14 355 -14 q 140 66 219 -14 q 61 284 61 146 q 109 535 61 421 q 250 711 158 649 q 469 772 342 772 q 674 692 597 772 q 751 472 751 612 q 751 467 751 469 m 546 472 q 449 606 546 606 q 357 564 398 606 q 292 442 317 521 q 267 278 267 363 q 368 153 267 153 q 460 194 419 153 q 523 310 500 236 q 546 472 546 383 z "},"ö":{"ha":812,"x_min":61,"x_max":751,"o":"m 262 937 q 290 1017 262 989 q 372 1044 319 1044 q 462 971 462 1044 q 435 891 462 920 q 353 863 408 863 q 262 937 262 863 m 534 937 q 563 1017 534 990 q 640 1044 591 1044 q 734 971 734 1044 q 707 891 734 920 q 626 863 680 863 q 534 937 534 863 m 751 467 q 644 120 751 254 q 359 -14 536 -14 q 351 -14 355 -14 q 140 66 219 -14 q 61 284 61 146 q 109 535 61 421 q 250 711 158 649 q 469 772 342 772 q 674 692 597 772 q 751 472 751 612 q 751 467 751 469 m 546 472 q 449 606 546 606 q 357 564 398 606 q 292 442 317 521 q 267 278 267 363 q 368 153 267 153 q 460 194 419 153 q 523 310 500 236 q 546 472 546 383 z "},"÷":{"ha":765,"x_min":74,"x_max":720,"o":"m 396 624 q 374 624 396 624 q 326 651 351 624 q 301 727 301 677 q 326 803 301 777 q 396 829 351 829 q 466 802 441 829 q 490 727 490 775 q 465 651 490 679 q 396 624 440 624 m 74 564 l 720 564 l 720 415 l 74 415 l 74 564 m 396 150 q 374 150 396 150 q 326 177 351 150 q 301 254 301 203 q 326 330 301 304 q 396 355 351 355 q 466 329 441 355 q 490 254 490 302 q 465 178 490 205 q 396 150 440 150 z "},"ø":{"ha":812,"x_min":29,"x_max":764,"o":"m 751 467 q 644 120 751 254 q 359 -14 536 -14 q 351 -14 355 -14 q 199 22 269 -14 l 125 -69 l 29 4 l 110 104 q 61 278 61 177 q 109 535 61 421 q 250 711 158 649 q 464 772 342 772 q 618 734 552 772 l 665 794 l 764 720 l 707 648 q 751 472 751 576 q 751 467 751 469 m 446 612 q 351 570 394 612 q 284 455 308 527 q 261 302 261 383 q 261 297 261 299 l 261 289 l 509 596 q 449 612 485 612 q 446 612 448 612 m 368 146 q 499 236 446 146 q 553 452 553 326 l 553 463 l 310 161 q 368 146 331 146 z "},"ù":{"ha":839,"x_min":75,"x_max":815,"o":"m 448 842 q 284 1050 334 954 l 284 1064 l 495 1064 q 573 859 519 962 l 573 842 l 448 842 m 278 235 q 351 151 278 151 q 464 228 414 151 q 545 444 515 305 l 611 758 l 815 758 l 654 0 l 498 0 l 513 140 l 509 140 q 268 -14 410 -14 q 125 42 174 -14 q 75 204 75 98 q 92 349 75 267 l 178 758 l 382 758 l 289 315 q 278 235 278 271 z "},"ú":{"ha":839,"x_min":75,"x_max":815,"o":"m 414 842 l 414 859 q 564 1064 468 918 l 791 1064 l 791 1053 q 686 948 759 1014 q 555 842 613 883 l 414 842 m 278 235 q 351 151 278 151 q 464 228 414 151 q 545 444 515 305 l 611 758 l 815 758 l 654 0 l 498 0 l 513 140 l 509 140 q 268 -14 410 -14 q 125 42 174 -14 q 75 204 75 98 q 92 349 75 267 l 178 758 l 382 758 l 289 315 q 278 235 278 271 z "},"û":{"ha":839,"x_min":75,"x_max":815,"o":"m 656 1064 q 775 859 692 977 l 775 842 l 641 842 q 531 956 598 878 q 374 842 459 895 l 227 842 l 227 859 q 330 958 269 897 q 427 1064 390 1018 l 656 1064 m 278 235 q 351 151 278 151 q 464 228 414 151 q 545 444 515 305 l 611 758 l 815 758 l 654 0 l 498 0 l 513 140 l 509 140 q 268 -14 410 -14 q 125 42 174 -14 q 75 204 75 98 q 92 349 75 267 l 178 758 l 382 758 l 289 315 q 278 235 278 271 z "},"ü":{"ha":839,"x_min":75,"x_max":815,"o":"m 279 937 q 307 1017 279 989 q 389 1044 336 1044 q 479 971 479 1044 q 452 891 479 920 q 370 863 425 863 q 279 937 279 863 m 551 937 q 580 1017 551 990 q 656 1044 608 1044 q 751 971 751 1044 q 724 891 751 920 q 643 863 696 863 q 551 937 551 863 m 278 235 q 351 151 278 151 q 464 228 414 151 q 545 444 515 305 l 611 758 l 815 758 l 654 0 l 498 0 l 513 140 l 509 140 q 268 -14 410 -14 q 125 42 174 -14 q 75 204 75 98 q 92 349 75 267 l 178 758 l 382 758 l 289 315 q 278 235 278 271 z "},"ÿ":{"ha":721,"x_min":-96,"x_max":793,"o":"m 210 937 q 239 1017 210 989 q 320 1044 267 1044 q 410 971 410 1044 q 383 891 410 920 q 302 863 356 863 q 210 937 210 863 m 483 937 q 511 1017 483 990 q 589 1044 540 1044 q 683 971 683 1044 q 655 891 683 920 q 574 863 628 863 q 483 937 483 863 m 317 208 l 321 208 q 338 256 326 222 q 395 393 365 331 l 571 758 l 793 758 l 332 -109 q 4 -334 212 -334 q -96 -321 -58 -334 l -96 -158 q -17 -167 -52 -167 q 83 -135 40 -167 q 163 -33 126 -102 l 180 0 l 69 758 l 269 758 l 307 407 q 317 208 317 321 z "},"ı":{"ha":412,"x_min":25,"x_max":390,"o":"m 25 0 l 186 758 l 390 758 l 229 0 l 25 0 z "},"Œ":{"ha":1251,"x_min":83,"x_max":1299,"o":"m 452 -14 q 180 86 278 -14 q 83 366 83 187 q 151 695 83 544 q 336 926 218 846 q 608 1007 454 1007 q 750 991 702 1007 l 1299 991 l 1263 819 l 916 819 l 869 602 l 1193 602 l 1156 429 l 832 429 l 778 174 l 1125 174 l 1089 0 l 574 0 q 452 -14 509 -14 m 705 806 q 586 832 663 832 q 441 770 509 832 q 333 599 372 707 q 294 364 294 491 q 339 214 294 265 q 467 163 384 163 q 574 184 525 163 l 705 806 z "},"œ":{"ha":1225,"x_min":61,"x_max":1190,"o":"m 812 -14 q 671 13 734 -14 q 578 85 609 39 q 338 -14 487 -14 q 136 66 211 -14 q 61 281 61 146 q 61 289 61 285 q 108 540 61 429 q 243 711 155 650 q 448 772 332 772 q 453 772 450 772 q 665 664 595 772 q 936 772 770 772 q 1123 717 1057 772 q 1190 566 1190 662 q 1077 370 1190 439 q 754 301 964 301 l 720 301 l 718 287 l 718 273 q 753 176 718 211 q 850 140 788 140 q 962 154 913 140 q 1076 199 1010 168 l 1076 45 q 812 -14 958 -14 m 772 439 q 936 471 877 439 q 994 561 994 504 q 924 625 994 625 q 811 572 864 625 q 742 439 759 519 l 772 439 m 534 472 q 509 571 534 537 q 436 606 484 606 q 351 564 389 606 q 290 445 313 523 q 267 281 267 368 q 292 185 267 218 q 366 153 317 153 q 487 243 439 153 q 534 472 534 334 z "},"Ÿ":{"ha":783,"x_min":126,"x_max":911,"o":"m 293 1166 q 321 1246 293 1219 q 403 1274 350 1274 q 493 1200 493 1274 q 466 1121 493 1149 q 385 1092 439 1092 q 293 1166 293 1092 m 566 1166 q 594 1246 566 1219 q 671 1274 623 1274 q 766 1200 766 1274 q 738 1121 766 1149 q 657 1092 711 1092 q 566 1166 566 1092 m 911 991 l 492 379 l 411 0 l 205 0 l 286 379 l 126 991 l 338 991 l 425 590 l 679 991 l 911 991 z "},"ƒ":{"ha":765,"x_min":-21,"x_max":785,"o":"m 97 -334 q -21 -317 26 -334 l -21 -153 q 57 -167 20 -167 q 174 -52 149 -167 l 300 546 l 186 546 l 205 647 l 334 701 l 346 758 q 440 947 374 888 q 625 1006 507 1006 q 785 972 715 1006 l 730 821 q 644 842 684 842 q 578 815 603 842 q 546 743 554 789 l 538 701 l 686 701 l 653 546 l 504 546 l 371 -82 q 97 -334 319 -334 z "},"ˆ":{"ha":770,"x_min":211,"x_max":760,"o":"m 640 1064 q 760 859 677 977 l 760 842 l 625 842 q 515 956 583 878 q 358 842 444 895 l 211 842 l 211 859 q 314 958 254 897 q 411 1064 374 1018 l 640 1064 z "},"ˇ":{"ha":770,"x_min":256,"x_max":804,"o":"m 256 1064 l 390 1064 q 500 950 433 1028 q 657 1064 579 1015 l 804 1064 l 804 1047 q 604 842 659 910 l 375 842 q 323 941 359 881 q 256 1047 288 1000 l 256 1064 z "},"˘":{"ha":770,"x_min":292,"x_max":778,"o":"m 511 842 q 350 891 408 842 q 292 1026 292 940 q 296 1071 292 1051 l 414 1071 q 438 1006 414 1027 q 518 986 463 986 q 606 1005 574 986 q 650 1071 638 1025 l 778 1071 q 511 842 740 842 z "},"˙":{"ha":412,"x_min":218,"x_max":443,"o":"m 218 936 q 250 1025 218 994 q 336 1055 282 1055 q 443 974 443 1055 q 412 885 443 918 q 321 852 382 852 q 218 936 218 852 z "},"˚":{"ha":802,"x_min":361,"x_max":701,"o":"m 652 1118 q 677 1096 652 1118 q 701 1002 701 1074 q 654 885 701 930 q 530 840 606 840 q 408 883 454 840 q 361 1001 361 926 q 407 1119 361 1075 q 528 1162 453 1162 q 652 1118 603 1162 m 576 954 q 586 963 576 954 q 595 1002 595 972 q 576 1049 595 1031 q 529 1067 558 1067 q 482 1049 500 1067 q 464 1001 464 1031 q 480 953 464 970 q 528 936 497 936 q 576 954 558 936 z "},"˛":{"ha":286,"x_min":-117,"x_max":164,"o":"m 35 -170 q 45 -199 35 -189 q 80 -210 56 -210 q 144 -197 104 -210 l 144 -317 q 27 -334 89 -334 q -76 -297 -35 -334 q -117 -203 -117 -261 q -84 -99 -117 -146 q 29 0 -52 -52 l 164 0 q 59 -101 83 -66 q 35 -170 35 -136 z "},"˜":{"ha":770,"x_min":214,"x_max":782,"o":"m 587 842 q 529 853 557 842 q 481 878 500 864 q 397 913 431 913 q 360 894 376 913 q 334 840 343 875 l 214 840 q 404 1050 254 1050 q 464 1039 434 1050 q 512 1015 493 1028 q 595 979 562 979 q 634 996 617 979 q 665 1051 650 1013 l 782 1051 q 587 842 737 842 z "},"˝":{"ha":770,"x_min":189,"x_max":822,"o":"m 189 842 l 189 859 q 346 1064 267 945 l 553 1064 l 553 1053 q 448 951 522 1015 q 310 842 375 888 l 189 842 m 458 842 l 458 859 q 615 1064 536 945 l 822 1064 l 822 1053 q 718 951 791 1015 q 579 842 644 888 l 458 842 z "},"ְ":{"ha":0,"x_min":345,"x_max":510,"o":"m 408 -84 q 457 -68 428 -68 q 498 -82 487 -68 q 510 -108 510 -96 q 482 -170 510 -149 q 432 -186 462 -186 q 391 -173 403 -186 q 380 -148 380 -159 q 408 -84 380 -106 m 373 -248 q 423 -232 393 -232 q 464 -245 452 -232 q 475 -271 475 -259 q 448 -334 475 -312 q 398 -349 427 -349 q 357 -336 368 -349 q 345 -311 345 -323 q 373 -248 345 -270 z "},"ֱ":{"ha":0,"x_min":209,"x_max":720,"o":"m 237 -95 q 286 -79 257 -79 q 327 -92 315 -79 q 339 -118 339 -106 q 311 -180 339 -159 q 261 -196 290 -196 q 220 -183 232 -196 q 209 -158 209 -170 q 237 -95 209 -116 m 437 -94 q 487 -79 458 -79 q 529 -93 517 -79 q 541 -119 541 -106 q 513 -180 541 -159 q 462 -196 492 -196 q 421 -183 432 -196 q 410 -159 410 -170 q 437 -94 410 -115 m 618 -95 q 668 -79 638 -79 q 709 -92 697 -79 q 720 -118 720 -106 q 692 -180 720 -159 q 643 -196 672 -196 q 602 -183 613 -196 q 590 -158 590 -170 q 618 -95 590 -116 m 305 -258 q 355 -242 326 -242 q 395 -256 384 -242 q 407 -281 407 -269 q 379 -343 407 -322 q 329 -359 359 -359 q 289 -346 300 -359 q 277 -321 277 -333 q 305 -258 277 -279 m 583 -258 q 633 -242 604 -242 q 674 -256 663 -242 q 686 -281 686 -269 q 658 -343 686 -322 q 608 -359 637 -359 q 567 -346 578 -359 q 555 -321 555 -333 q 583 -258 555 -280 z "},"ֲ":{"ha":0,"x_min":248,"x_max":690,"o":"m 588 -94 q 598 -86 588 -94 q 637 -79 608 -79 q 678 -92 667 -79 q 690 -118 690 -106 q 662 -180 690 -159 q 612 -196 642 -196 q 571 -183 583 -196 q 560 -158 560 -170 q 562 -138 560 -146 q 588 -94 568 -110 m 496 -176 l 248 -176 l 264 -96 l 513 -96 l 496 -176 m 553 -258 q 603 -242 574 -242 q 644 -256 632 -242 q 655 -281 655 -269 q 627 -343 655 -322 q 577 -359 607 -359 q 537 -346 548 -359 q 526 -321 526 -333 q 553 -258 526 -279 z "},"ֳ":{"ha":0,"x_min":248,"x_max":692,"o":"m 590 -95 q 640 -79 610 -79 q 681 -92 669 -79 q 692 -118 692 -106 q 665 -180 692 -159 q 615 -196 644 -196 q 574 -183 585 -196 q 562 -158 562 -170 q 590 -95 562 -116 m 496 -176 l 410 -176 l 380 -313 l 305 -313 l 334 -176 l 248 -176 l 264 -96 l 513 -96 l 496 -176 m 555 -258 q 605 -242 576 -242 q 646 -256 635 -242 q 658 -281 658 -269 q 630 -343 658 -322 q 580 -359 610 -359 q 539 -346 551 -359 q 528 -321 528 -333 q 555 -258 528 -280 z "},"ִ":{"ha":0,"x_min":360,"x_max":492,"o":"m 388 -91 q 438 -75 408 -75 q 479 -89 467 -75 q 492 -115 492 -103 q 464 -176 492 -155 q 413 -193 443 -193 q 372 -180 383 -193 q 360 -155 360 -167 q 388 -91 360 -112 z "},"ֵ":{"ha":0,"x_min":260,"x_max":593,"o":"m 288 -78 q 298 -70 288 -78 q 338 -62 309 -62 q 378 -76 367 -62 q 390 -102 390 -90 q 363 -164 390 -142 q 313 -180 342 -180 q 272 -166 283 -180 q 260 -141 260 -153 q 262 -121 260 -130 q 288 -78 268 -94 m 463 -121 q 488 -78 468 -94 q 538 -62 509 -62 q 581 -76 568 -62 q 593 -102 593 -90 q 565 -164 593 -142 q 514 -180 544 -180 q 472 -166 484 -180 q 460 -141 460 -153 q 463 -121 460 -130 z "},"ֶ":{"ha":0,"x_min":278,"x_max":610,"o":"m 306 -94 q 316 -86 306 -94 q 355 -79 326 -79 q 396 -92 385 -79 q 408 -118 408 -106 q 380 -180 408 -159 q 330 -196 359 -196 q 289 -183 300 -196 q 278 -158 278 -170 q 280 -138 278 -146 q 306 -94 286 -110 m 506 -94 q 556 -79 526 -79 q 598 -93 586 -79 q 610 -119 610 -106 q 582 -180 610 -159 q 531 -196 561 -196 q 490 -183 501 -196 q 478 -158 478 -170 q 506 -94 478 -115 m 374 -258 q 424 -242 394 -242 q 465 -256 453 -242 q 476 -281 476 -269 q 448 -343 476 -322 q 398 -359 428 -359 q 357 -346 369 -359 q 346 -321 346 -333 q 374 -258 346 -280 z "},"ַ":{"ha":0,"x_min":285,"x_max":568,"o":"m 551 -159 l 285 -159 l 301 -80 l 568 -80 l 551 -159 z "},"ָ":{"ha":0,"x_min":303,"x_max":579,"o":"m 562 -173 l 470 -173 l 441 -310 l 366 -310 l 395 -173 l 303 -173 l 320 -94 l 579 -94 l 562 -173 z "},"ֹ":{"ha":0,"x_min":361,"x_max":492,"o":"m 389 1058 q 438 1074 409 1074 q 480 1060 468 1074 q 492 1034 492 1046 q 465 972 492 994 q 414 956 444 956 q 372 969 384 956 q 361 994 361 982 q 389 1058 361 1037 z "},"ֺ":{"ha":0,"x_min":361,"x_max":492,"o":"m 389 1058 q 438 1074 409 1074 q 480 1060 468 1074 q 492 1034 492 1046 q 465 972 492 994 q 414 956 444 956 q 372 969 384 956 q 361 994 361 982 q 389 1058 361 1037 z "},"ֻ":{"ha":0,"x_min":291,"x_max":620,"o":"m 319 -102 q 368 -86 339 -86 q 409 -100 397 -86 q 420 -125 420 -113 q 393 -188 420 -167 q 343 -203 372 -203 q 302 -190 313 -203 q 291 -165 291 -177 q 319 -102 291 -123 m 416 -221 q 466 -205 436 -205 q 507 -219 495 -205 q 518 -245 518 -233 q 491 -307 518 -286 q 441 -323 471 -323 q 400 -310 412 -323 q 388 -285 388 -296 q 416 -221 388 -243 m 516 -340 q 566 -324 536 -324 q 608 -338 595 -324 q 620 -364 620 -352 q 591 -426 620 -404 q 541 -441 570 -441 q 499 -429 511 -441 q 488 -404 488 -416 q 516 -340 488 -361 z "},"ּ":{"ha":0,"x_min":360,"x_max":492,"o":"m 388 488 q 438 504 408 504 q 479 490 467 504 q 492 464 492 476 q 464 403 492 424 q 413 387 443 387 q 372 399 383 387 q 360 425 360 412 q 388 488 360 467 z "},"ֽ":{"ha":852,"x_min":366,"x_max":486,"o":"m 435 -345 l 366 -345 l 416 -106 l 486 -106 l 435 -345 z "},"־":{"ha":447,"x_min":23,"x_max":424,"o":"m 387 705 l 23 705 l 60 875 l 424 875 l 387 705 z "},"ׁ":{"ha":0,"x_min":325,"x_max":456,"o":"m 353 1058 q 402 1074 373 1074 q 444 1060 432 1074 q 456 1034 456 1046 q 429 972 456 994 q 378 956 408 956 q 336 969 348 956 q 325 994 325 982 q 353 1058 325 1037 z "},"ׂ":{"ha":0,"x_min":361,"x_max":492,"o":"m 389 1058 q 438 1074 409 1074 q 480 1060 468 1074 q 492 1034 492 1046 q 465 972 492 994 q 414 956 444 956 q 372 969 384 956 q 361 994 361 982 q 389 1058 361 1037 z "},"ׇ":{"ha":0,"x_min":85,"x_max":377,"o":"m 363 -142 l 254 -142 l 220 -301 l 157 -301 l 191 -142 l 85 -142 l 99 -75 l 377 -75 l 363 -142 z "},"א":{"ha":901,"x_min":-14,"x_max":912,"o":"m 912 875 l 846 562 q 830 502 838 528 q 804 444 821 475 q 763 388 787 412 q 702 342 740 364 q 616 307 664 320 l 746 0 l 511 0 l 342 433 q 289 391 308 420 q 260 315 270 362 l 193 0 l -14 0 l 53 313 q 68 373 60 347 q 94 431 77 399 q 136 487 112 463 q 198 533 159 511 q 285 568 236 555 l 155 875 l 390 875 l 503 575 l 559 441 q 610 484 591 455 q 638 559 629 513 l 706 875 l 912 875 z "},"ב":{"ha":802,"x_min":-25,"x_max":712,"o":"m 696 572 l 608 158 l 708 158 l 675 0 l -25 0 l 8 158 l 401 158 l 489 572 q 494 620 494 598 q 350 729 494 729 q 160 717 263 729 l 126 713 l 161 876 q 395 888 263 888 q 593 865 526 888 q 686 801 660 842 q 712 705 712 759 q 696 572 712 650 z "},"ג":{"ha":645,"x_min":-47,"x_max":593,"o":"m 355 715 q 313 725 340 725 q 209 713 256 725 l 193 709 l 227 873 q 366 888 290 888 q 486 874 441 888 q 555 837 532 860 q 593 722 593 800 q 578 616 593 682 l 448 0 l 291 0 l 288 127 l 277 127 q 266 112 273 122 q 233 78 258 102 q 179 36 207 54 q 108 2 151 17 q 20 -14 64 -14 q -47 -6 -7 -14 l 9 186 q 25 182 10 184 q 56 180 40 180 q 99 181 72 180 q 166 194 125 182 q 264 258 223 211 q 319 369 306 306 l 372 616 q 355 715 389 694 z "},"ד":{"ha":760,"x_min":89,"x_max":821,"o":"m 821 875 l 789 725 q 723 693 760 714 q 663 633 684 668 q 631 543 643 599 l 516 0 l 309 0 l 426 548 q 451 616 433 585 q 487 663 468 646 q 551 708 526 699 l 563 712 l 564 717 l 89 717 l 122 875 l 821 875 z "},"ה":{"ha":912,"x_min":14,"x_max":851,"o":"m 823 804 q 851 699 851 760 q 835 572 851 638 l 713 0 l 506 0 l 627 572 q 633 620 633 598 q 488 729 633 729 q 346 723 427 729 q 214 709 264 716 l 163 703 l 197 859 q 556 888 342 888 q 823 804 769 888 m 222 0 l 14 0 l 133 558 l 340 558 l 222 0 z "},"ו":{"ha":424,"x_min":16,"x_max":408,"o":"m 222 0 l 16 0 l 201 875 l 408 875 l 222 0 z "},"ז":{"ha":475,"x_min":15,"x_max":536,"o":"m 536 875 l 503 717 q 428 647 465 691 q 369 561 392 602 q 329 466 345 519 q 305 386 312 414 q 284 294 298 357 l 222 0 l 15 0 l 77 294 q 163 528 107 435 q 264 656 215 615 q 336 707 312 696 l 347 712 l 349 717 l 136 717 l 169 875 l 536 875 z "},"ח":{"ha":912,"x_min":14,"x_max":851,"o":"m 823 804 q 851 699 851 760 q 835 572 851 638 l 713 0 l 506 0 l 627 572 q 633 620 633 598 q 488 729 633 729 q 376 724 442 729 l 222 0 l 14 0 l 197 859 q 556 888 342 888 q 823 804 769 888 z "},"ט":{"ha":902,"x_min":88,"x_max":867,"o":"m 296 300 q 410 153 296 153 q 545 220 491 153 q 631 437 600 287 q 656 618 656 553 q 633 697 656 675 q 595 719 617 713 q 536 724 574 724 l 492 721 l 525 873 q 637 888 577 888 q 741 875 696 888 q 858 745 835 845 q 867 672 867 707 q 840 437 867 568 q 671 103 793 219 q 368 -14 549 -14 q 196 38 266 -14 q 100 191 127 90 q 88 298 88 237 q 104 437 88 359 l 197 873 l 406 873 q 319 465 342 573 q 296 300 296 357 z "},"י":{"ha":401,"x_min":71,"x_max":401,"o":"m 315 471 l 140 296 l 71 296 l 195 875 l 401 875 l 315 471 z "},"ך":{"ha":741,"x_min":94,"x_max":669,"o":"m 386 888 q 523 865 466 888 q 611 804 581 842 q 656 716 642 766 q 669 617 669 666 q 654 488 669 559 l 479 -334 l 271 -334 l 450 509 q 461 595 461 558 q 449 663 461 632 q 406 712 437 694 q 326 729 375 729 q 94 714 239 729 l 128 873 q 386 888 252 888 z "},"כ":{"ha":715,"x_min":-47,"x_max":679,"o":"m 395 888 q 532 865 475 888 q 621 804 589 842 q 665 716 652 766 q 679 617 679 666 q 663 488 679 559 l 642 387 q 412 31 585 117 q 203 -14 323 -14 q -47 5 48 -14 l -13 167 q 212 153 94 153 q 363 216 312 153 q 430 366 410 271 l 460 509 q 470 593 470 556 q 334 729 470 729 q 104 714 248 729 l 138 873 q 395 888 261 888 z "},"ל":{"ha":756,"x_min":109,"x_max":810,"o":"m 350 875 l 810 875 l 782 741 l 574 325 l 433 0 l 231 0 l 373 325 l 568 717 l 109 717 l 181 1055 l 388 1055 l 350 875 z "},"ם":{"ha":912,"x_min":14,"x_max":856,"o":"m 197 859 q 540 888 342 888 q 807 827 737 888 q 856 703 856 784 q 848 631 856 671 l 713 0 l 14 0 l 197 859 m 640 631 q 643 659 643 646 q 609 712 643 698 q 558 726 586 722 q 487 729 531 729 q 376 724 442 729 l 255 158 l 539 158 l 640 631 z "},"מ":{"ha":958,"x_min":-25,"x_max":884,"o":"m 174 753 q 173 794 174 775 q 171 827 172 813 q 169 849 170 840 q 166 863 168 857 q 165 876 165 869 l 363 876 q 370 814 368 849 l 373 741 l 386 741 q 429 789 399 761 q 491 837 460 818 q 573 872 522 857 q 682 888 623 888 q 784 866 741 888 q 849 807 827 844 q 884 651 884 749 q 865 495 884 586 l 760 0 l 385 0 l 418 158 l 581 158 l 648 471 q 665 601 665 549 q 657 656 665 631 q 637 694 650 682 q 555 724 608 724 q 491 710 524 724 q 435 674 458 695 q 362 598 385 631 l 353 583 l 177 0 l -25 0 l 144 555 q 174 753 174 655 z "},"ן":{"ha":408,"x_min":-61,"x_max":361,"o":"m 355 875 q 361 798 361 831 q 360 744 361 766 q 354 669 360 723 q 336 559 348 616 l 146 -334 l -61 -334 q 127 550 113 484 q 154 772 154 674 q 148 875 154 831 l 355 875 z "},"נ":{"ha":596,"x_min":-32,"x_max":541,"o":"m 194 876 q 320 888 255 888 q 430 874 386 888 q 497 837 473 861 q 541 714 541 793 q 528 616 541 674 l 452 260 q 417 131 439 196 q 379 33 395 66 l 363 0 l -32 0 l 1 158 l 212 158 q 257 314 235 210 l 321 616 q 304 715 338 694 q 264 725 290 725 q 159 713 214 725 l 194 876 z "},"ס":{"ha":860,"x_min":45,"x_max":815,"o":"m 526 888 q 772 770 700 888 q 815 589 815 698 q 798 437 815 521 q 629 106 753 225 q 335 -14 506 -14 q 91 106 164 -14 q 45 290 45 179 q 62 438 45 357 q 128 598 79 519 q 224 713 177 677 l 225 719 l 134 713 l 168 869 q 526 888 329 888 m 256 300 q 369 151 256 151 q 587 437 526 151 q 605 579 605 520 q 492 729 605 729 l 415 728 q 273 437 311 616 q 256 300 256 357 z "},"ע":{"ha":880,"x_min":-50,"x_max":907,"o":"m 406 480 l 401 203 q 506 301 463 237 q 580 465 550 364 l 703 874 l 907 874 l 793 494 q 728 330 764 393 q 634 197 682 245 q 476 77 557 119 q 236 0 366 22 l -50 -41 l -16 119 l 214 153 l 176 875 l 382 875 l 406 480 z "},"ף":{"ha":888,"x_min":74,"x_max":808,"o":"m 74 495 q 86 591 74 533 q 133 703 98 648 q 211 792 167 758 q 309 849 254 827 q 518 890 405 890 q 720 831 647 890 q 768 774 747 809 q 808 600 808 707 q 789 438 808 526 l 625 -334 l 414 -334 l 578 438 q 601 593 601 541 q 593 649 601 622 q 572 690 586 677 q 483 724 541 724 q 406 711 440 724 q 353 682 372 699 q 320 644 334 666 q 296 591 300 612 q 292 554 292 569 q 297 518 292 538 q 320 483 303 498 q 380 448 351 454 l 406 444 l 338 289 l 303 294 q 170 327 214 306 q 74 495 74 374 z "},"פ":{"ha":861,"x_min":22,"x_max":817,"o":"m 83 495 q 95 591 83 533 q 141 703 107 648 q 219 792 176 758 q 317 848 262 826 q 526 888 414 888 q 728 830 654 888 q 777 773 755 808 q 817 600 817 707 q 796 427 817 526 q 738 247 775 329 q 657 116 701 165 q 559 37 614 67 q 451 -3 503 7 q 323 -14 398 -14 q 170 -9 248 -14 q 57 1 92 -4 l 22 5 l 54 157 q 368 145 208 145 q 486 193 443 145 q 524 241 508 216 q 552 304 539 266 q 600 496 578 383 q 610 575 610 550 q 609 614 610 600 q 601 653 608 629 q 582 690 595 677 q 492 724 550 724 q 415 711 449 724 q 362 682 381 699 q 330 644 343 666 q 305 591 309 612 q 301 554 301 569 q 307 518 301 538 q 328 483 312 498 q 389 448 359 454 l 414 444 l 347 289 l 312 294 q 179 327 222 306 q 83 495 83 374 z "},"ץ":{"ha":795,"x_min":41,"x_max":825,"o":"m 437 295 q 382 298 408 295 l 248 -334 l 41 -334 l 195 391 l 104 875 l 331 875 l 389 448 l 389 438 q 425 436 409 436 q 508 465 478 436 q 552 559 538 493 l 618 875 l 825 875 l 759 562 q 635 352 729 420 q 550 311 601 327 q 437 295 499 295 z "},"צ":{"ha":864,"x_min":-42,"x_max":895,"o":"m 369 875 l 530 481 q 633 683 592 551 l 690 874 l 895 874 l 846 713 q 777 541 809 595 q 736 475 760 512 q 604 342 688 404 l 730 119 l 705 0 l -42 0 l -9 158 l 329 158 l 481 149 l 482 151 l 342 389 l 137 875 l 369 875 z "},"ק":{"ha":888,"x_min":-50,"x_max":944,"o":"m 918 750 l 686 351 q 546 23 574 157 l 541 0 l 335 0 l 340 23 q 390 175 352 78 q 469 342 428 272 l 684 717 l 172 717 l 205 875 l 944 875 l 918 750 m 142 -334 l -50 -334 l 132 524 l 323 524 l 142 -334 z "},"ר":{"ha":734,"x_min":93,"x_max":679,"o":"m 127 874 q 373 888 256 888 q 557 867 489 888 q 651 804 625 845 q 679 699 679 760 q 663 572 679 638 l 541 0 l 334 0 l 455 572 q 460 620 460 598 q 316 729 460 729 q 93 715 230 729 l 127 874 z "},"ש":{"ha":1088,"x_min":50,"x_max":1120,"o":"m 446 0 l 50 0 l 162 875 l 360 875 l 304 437 q 324 436 312 436 q 410 465 378 436 q 461 559 441 493 l 554 875 l 751 875 l 659 562 q 324 295 581 295 q 286 296 311 295 l 268 158 l 489 158 q 682 246 602 158 q 808 489 762 334 l 922 875 l 1120 875 l 1007 494 q 933 301 970 374 q 446 0 777 0 z "},"ת":{"ha":973,"x_min":-45,"x_max":913,"o":"m 886 804 q 913 699 913 760 q 897 572 913 638 l 776 0 l 568 0 l 689 572 q 694 620 694 598 q 551 729 694 729 q 468 727 513 729 l 368 259 q 334 151 355 197 q 277 66 313 105 q 48 -14 202 -14 q -2 -9 22 -14 q -45 5 -25 -4 l -11 162 q 58 150 32 150 q 102 159 83 150 q 132 186 121 169 q 161 259 152 215 l 258 712 l 157 703 l 191 859 q 618 888 405 888 q 886 804 831 888 z "},"׳":{"ha":301,"x_min":57,"x_max":388,"o":"m 382 875 l 388 860 q 210 535 316 703 l 57 535 q 189 875 117 674 l 382 875 z "},"״":{"ha":618,"x_min":72,"x_max":705,"o":"m 397 875 l 403 860 q 225 535 331 703 l 72 535 q 204 875 132 674 l 397 875 m 375 535 q 507 875 414 627 l 700 875 l 705 860 q 528 535 633 703 l 375 535 z "},"–":{"ha":667,"x_min":28,"x_max":639,"o":"m 61 452 l 639 452 l 606 296 l 28 296 l 61 452 z "},"—":{"ha":1333,"x_min":28,"x_max":1305,"o":"m 61 452 l 1305 452 l 1272 296 l 28 296 l 61 452 z "},"‘":{"ha":298,"x_min":78,"x_max":408,"o":"m 83 652 l 78 667 q 256 991 150 823 l 408 991 q 277 652 351 857 l 83 652 z "},"’":{"ha":298,"x_min":72,"x_max":403,"o":"m 397 991 l 403 977 q 225 652 331 820 l 72 652 q 204 991 132 791 l 397 991 z "},"‚":{"ha":386,"x_min":-69,"x_max":261,"o":"m 256 161 l 261 146 q 83 -179 189 -11 l -69 -179 q 62 161 -13 -47 l 256 161 z "},"“":{"ha":602,"x_min":78,"x_max":711,"o":"m 83 652 l 78 667 q 256 991 150 823 l 408 991 q 277 652 351 857 l 83 652 m 386 652 l 380 667 q 558 991 452 823 l 711 991 q 579 652 646 838 l 386 652 z "},"”":{"ha":602,"x_min":72,"x_max":705,"o":"m 397 991 l 403 977 q 225 652 331 820 l 72 652 q 204 991 132 791 l 397 991 m 375 652 q 507 991 414 743 l 700 991 l 705 977 q 528 652 633 820 l 375 652 z "},"„":{"ha":690,"x_min":-69,"x_max":566,"o":"m 256 161 l 261 146 q 83 -179 189 -11 l -69 -179 q 62 161 -13 -47 l 256 161 m 559 161 l 566 146 q 387 -179 495 -9 l 235 -179 l 268 -98 q 367 161 281 -68 l 559 161 z "},"†":{"ha":703,"x_min":129,"x_max":703,"o":"m 457 650 l 354 0 l 163 0 l 336 648 l 129 629 l 164 793 l 364 774 l 387 1055 l 579 1055 l 484 774 l 703 793 l 668 629 l 457 650 z "},"‡":{"ha":717,"x_min":40,"x_max":717,"o":"m 627 399 l 591 235 l 380 254 l 363 0 l 170 0 l 260 254 l 40 235 l 75 399 l 286 379 l 289 533 l 350 676 l 131 657 l 165 821 l 376 802 l 395 1055 l 587 1055 l 497 802 l 717 821 l 682 657 l 471 676 l 471 533 l 407 379 l 627 399 z "},"•":{"ha":501,"x_min":71,"x_max":471,"o":"m 71 467 q 135 650 71 577 q 297 722 199 722 q 304 722 301 722 q 428 677 385 722 q 471 547 471 631 q 409 360 471 428 q 240 292 347 292 q 115 337 160 292 q 71 467 71 382 z "},"…":{"ha":1157,"x_min":17,"x_max":1018,"o":"m 17 78 q 54 176 17 140 q 155 212 90 212 q 230 186 202 212 q 257 114 257 160 q 219 18 257 55 q 127 -18 182 -18 q 45 7 73 -18 q 17 78 17 33 m 397 78 q 434 176 397 140 q 536 212 471 212 q 610 186 583 212 q 637 114 637 160 q 600 18 637 55 q 508 -18 563 -18 q 425 7 453 -18 q 397 78 397 33 m 778 78 q 814 176 778 140 q 916 212 851 212 q 990 186 963 212 q 1018 114 1018 160 q 980 18 1018 55 q 888 -18 943 -18 q 806 7 833 -18 q 778 78 778 33 z "},"‰":{"ha":1691,"x_min":78,"x_max":1642,"o":"m 363 1006 q 507 951 457 1006 q 557 787 557 897 q 519 581 557 678 q 417 433 481 483 q 264 383 353 383 q 127 439 176 383 q 78 606 78 496 q 115 811 78 715 q 363 1006 192 1006 m 319 0 l 157 0 l 895 991 l 1054 991 l 319 0 m 351 864 q 276 777 309 864 q 244 589 244 689 q 282 524 244 524 q 358 613 326 524 q 390 799 390 702 q 351 864 390 864 m 949 610 q 994 610 949 610 q 1088 556 1038 610 q 1139 395 1139 503 q 1102 188 1139 287 q 1002 38 1066 89 q 856 -12 939 -12 q 709 41 759 -12 q 660 192 660 94 q 696 410 660 311 q 796 559 732 509 q 949 610 860 610 m 1452 610 q 1496 610 1452 610 q 1591 556 1541 610 q 1642 395 1642 503 q 1605 188 1642 288 q 1504 38 1567 89 q 1358 -12 1441 -12 q 1212 41 1261 -12 q 1162 192 1162 94 q 1198 410 1162 312 q 1298 559 1234 508 q 1452 610 1362 610 m 933 468 q 882 430 907 468 q 842 325 858 392 q 827 193 827 258 q 864 127 827 127 q 917 165 892 127 q 957 270 941 203 q 972 402 972 337 q 933 468 972 468 m 1436 468 q 1385 430 1411 468 q 1344 323 1360 391 q 1329 191 1329 254 q 1367 127 1329 127 q 1443 217 1411 127 q 1475 403 1475 306 q 1436 468 1475 468 z "},"‹":{"ha":450,"x_min":49,"x_max":450,"o":"m 321 700 l 450 595 l 261 368 l 353 131 l 186 61 l 49 374 l 49 386 l 321 700 z "},"›":{"ha":450,"x_min":0,"x_max":401,"o":"m 129 49 l 0 154 l 189 380 l 97 618 l 264 688 l 401 375 l 401 363 l 129 49 z "},"⁄":{"ha":174,"x_min":-361,"x_max":536,"o":"m -199 0 l -361 0 l 376 991 l 536 991 l -199 0 z "},"₪":{"ha":1374,"x_min":16,"x_max":1365,"o":"m 631 875 q 880 834 788 875 q 944 786 920 817 q 978 728 968 755 q 988 661 988 701 q 983 580 988 615 q 966 493 977 545 l 928 314 l 730 314 l 768 493 q 781 597 781 551 q 762 669 781 643 q 598 717 728 717 l 374 717 l 222 0 l 16 0 l 201 875 l 631 875 m 658 0 l 340 0 l 459 561 l 665 561 l 579 158 l 690 158 q 838 188 768 158 q 957 269 907 217 q 1093 526 1060 374 l 1167 875 l 1365 875 l 1291 526 q 1156 227 1254 355 q 1069 139 1120 181 q 960 66 1019 96 q 823 18 901 36 q 658 0 745 0 z "},"€":{"ha":765,"x_min":28,"x_max":844,"o":"m 610 839 q 491 789 545 839 q 399 644 437 739 l 635 644 l 608 525 l 364 525 q 347 447 355 496 l 550 447 l 525 326 l 335 326 q 366 202 335 243 q 465 161 397 161 q 657 204 555 161 l 657 29 q 433 -14 572 -14 q 131 326 131 -14 l 28 326 l 53 447 l 139 447 q 154 525 145 494 l 69 525 l 96 644 l 187 644 q 357 911 246 816 q 611 1007 467 1007 q 731 992 677 1007 q 844 937 785 977 l 760 786 q 671 829 701 819 q 610 839 642 839 z "},"™":{"ha":1040,"x_min":72,"x_max":1039,"o":"m 205 503 l 205 890 l 72 890 l 72 991 l 454 991 l 454 890 l 319 890 l 319 503 l 205 503 m 596 503 l 485 503 l 485 991 l 653 991 l 761 646 l 876 991 l 1039 991 l 1039 503 l 925 503 l 925 779 l 928 861 l 924 861 l 806 503 l 710 503 l 597 861 l 593 861 l 596 786 l 596 503 z "},"∫":{"ha":572,"x_min":0,"x_max":572,"o":"m 572 856 q 471 882 511 882 q 410 857 431 882 q 390 789 390 833 l 390 -77 q 324 -268 390 -203 q 132 -334 258 -334 q 0 -306 59 -334 l 0 -134 q 107 -160 62 -160 q 182 -64 182 -160 l 182 799 q 248 990 182 924 q 440 1055 313 1055 q 572 1028 515 1055 l 572 856 z "},"≠":{"ha":765,"x_min":74,"x_max":720,"o":"m 74 283 l 74 432 l 288 432 l 342 547 l 74 547 l 74 694 l 410 694 l 498 885 l 635 827 l 572 694 l 720 694 l 720 547 l 504 547 l 450 432 l 720 432 l 720 283 l 380 283 l 294 97 l 158 154 l 218 283 l 74 283 z "},"◊":{"ha":810,"x_min":77,"x_max":765,"o":"m 460 0 l 382 0 l 77 498 l 382 999 l 460 999 l 765 498 l 460 0 m 421 777 l 256 498 l 421 221 l 586 498 l 421 777 z "},"ﬁ":{"ha":930,"x_min":-149,"x_max":961,"o":"m -31 -334 q -149 -317 -102 -334 l -149 -153 q -67 -167 -106 -167 q 3 -139 -27 -167 q 46 -52 34 -111 l 184 603 l 74 603 l 94 701 l 218 758 l 231 815 q 325 1004 258 945 q 510 1063 391 1063 q 669 1029 600 1063 l 615 878 q 528 899 569 899 q 463 872 488 899 q 431 800 439 846 l 422 758 l 571 758 l 538 603 l 389 603 l 243 -82 q -31 -334 191 -334 m 736 936 q 768 1025 736 994 q 854 1055 800 1055 q 961 974 961 1055 q 930 885 961 918 q 839 852 900 852 q 736 936 736 852 m 543 0 l 704 758 l 908 758 l 747 0 l 543 0 z "},"ﬂ":{"ha":930,"x_min":-149,"x_max":971,"o":"m -31 -334 q -149 -317 -102 -334 l -149 -153 q -67 -167 -106 -167 q 3 -139 -27 -167 q 46 -52 34 -111 l 184 603 l 74 603 l 94 701 l 218 758 l 231 815 q 325 1004 258 945 q 510 1063 391 1063 q 669 1029 600 1063 l 615 878 q 528 899 569 899 q 463 872 488 899 q 431 800 439 846 l 422 758 l 571 758 l 538 603 l 389 603 l 243 -82 q -31 -334 191 -334 m 767 1055 l 971 1055 l 747 0 l 543 0 l 767 1055 z "},"שׁ":{"ha":1088,"x_min":50,"x_max":1193,"o":"m 1089 1086 q 1139 1102 1109 1102 q 1181 1088 1168 1102 q 1193 1062 1193 1074 q 1165 1001 1193 1022 q 1114 985 1144 985 q 1073 998 1084 985 q 1061 1023 1061 1010 q 1089 1086 1061 1065 m 446 0 l 50 0 l 162 875 l 360 875 l 304 437 q 324 436 312 436 q 410 465 378 436 q 461 559 441 493 l 554 875 l 751 875 l 659 562 q 324 295 581 295 q 286 296 311 295 l 268 158 l 489 158 q 682 246 602 158 q 808 489 762 334 l 922 875 l 1120 875 l 1007 494 q 933 301 970 374 q 446 0 777 0 z "},"שׂ":{"ha":1088,"x_min":50,"x_max":1120,"o":"m 189 1086 q 239 1102 210 1102 q 281 1088 269 1102 q 293 1062 293 1074 q 265 1001 293 1022 q 214 985 244 985 q 173 998 184 985 q 161 1023 161 1010 q 189 1086 161 1065 m 446 0 l 50 0 l 162 875 l 360 875 l 304 437 q 324 436 312 436 q 410 465 378 436 q 461 559 441 493 l 554 875 l 751 875 l 659 562 q 324 295 581 295 q 286 296 311 295 l 268 158 l 489 158 q 682 246 602 158 q 808 489 762 334 l 922 875 l 1120 875 l 1007 494 q 933 301 970 374 q 446 0 777 0 z "},"שּׁ":{"ha":1088,"x_min":50,"x_max":1193,"o":"m 1089 1086 q 1139 1102 1109 1102 q 1181 1088 1168 1102 q 1193 1062 1193 1074 q 1165 1001 1193 1022 q 1114 985 1144 985 q 1073 998 1084 985 q 1061 1023 1061 1010 q 1089 1086 1061 1065 m 446 0 l 50 0 l 162 875 l 360 875 l 304 437 q 324 436 312 436 q 410 465 378 436 q 461 559 441 493 l 554 875 l 751 875 l 659 562 q 324 295 581 295 q 286 296 311 295 l 268 158 l 489 158 q 682 246 602 158 q 808 489 762 334 l 922 875 l 1120 875 l 1007 494 q 933 301 970 374 q 446 0 777 0 m 545 329 q 594 345 565 345 q 636 331 624 345 q 648 304 648 317 q 621 243 648 264 q 570 227 600 227 q 528 240 540 227 q 517 265 517 253 q 545 329 517 308 z "},"שּׂ":{"ha":1088,"x_min":50,"x_max":1120,"o":"m 189 1086 q 239 1102 210 1102 q 281 1088 269 1102 q 293 1062 293 1074 q 265 1001 293 1022 q 214 985 244 985 q 173 998 184 985 q 161 1023 161 1010 q 189 1086 161 1065 m 446 0 l 50 0 l 162 875 l 360 875 l 304 437 q 324 436 312 436 q 410 465 378 436 q 461 559 441 493 l 554 875 l 751 875 l 659 562 q 324 295 581 295 q 286 296 311 295 l 268 158 l 489 158 q 682 246 602 158 q 808 489 762 334 l 922 875 l 1120 875 l 1007 494 q 933 301 970 374 q 446 0 777 0 m 545 329 q 594 345 565 345 q 636 331 624 345 q 648 304 648 317 q 621 243 648 264 q 570 227 600 227 q 528 240 540 227 q 517 265 517 253 q 545 329 517 308 z "},"אַ":{"ha":901,"x_min":-14,"x_max":912,"o":"m 912 875 l 846 562 q 830 502 838 528 q 804 444 821 475 q 763 388 787 412 q 702 342 740 364 q 616 307 664 320 l 746 0 l 511 0 l 342 433 q 289 391 308 420 q 260 315 270 362 l 193 0 l -14 0 l 53 313 q 68 373 60 347 q 94 431 77 399 q 136 487 112 463 q 198 533 159 511 q 285 568 236 555 l 155 875 l 390 875 l 503 575 l 559 441 q 610 484 591 455 q 638 559 629 513 l 706 875 l 912 875 m 456 -169 l 190 -169 l 206 -90 l 473 -90 l 456 -169 z "},"אָ":{"ha":901,"x_min":-14,"x_max":912,"o":"m 912 875 l 846 562 q 830 502 838 528 q 804 444 821 475 q 763 388 787 412 q 702 342 740 364 q 616 307 664 320 l 746 0 l 511 0 l 342 433 q 289 391 308 420 q 260 315 270 362 l 193 0 l -14 0 l 53 313 q 68 373 60 347 q 94 431 77 399 q 136 487 112 463 q 198 533 159 511 q 285 568 236 555 l 155 875 l 390 875 l 503 575 l 559 441 q 610 484 591 455 q 638 559 629 513 l 706 875 l 912 875 m 450 -183 l 357 -183 l 328 -320 l 253 -320 l 282 -183 l 191 -183 l 208 -104 l 467 -104 l 450 -183 z "},"אּ":{"ha":901,"x_min":-14,"x_max":912,"o":"m 912 875 l 846 562 q 830 502 838 528 q 804 444 821 475 q 763 388 787 412 q 702 342 740 364 q 616 307 664 320 l 746 0 l 511 0 l 342 433 q 289 391 308 420 q 260 315 270 362 l 193 0 l -14 0 l 53 313 q 68 373 60 347 q 94 431 77 399 q 136 487 112 463 q 198 533 159 511 q 285 568 236 555 l 155 875 l 390 875 l 503 575 l 559 441 q 610 484 591 455 q 638 559 629 513 l 706 875 l 912 875 m 311 188 q 360 203 331 203 q 402 190 390 203 q 414 163 414 176 q 387 102 414 123 q 336 86 366 86 q 294 99 306 86 q 283 124 283 112 q 311 188 283 167 z "},"בּ":{"ha":802,"x_min":-25,"x_max":712,"o":"m 696 572 l 608 158 l 708 158 l 675 0 l -25 0 l 8 158 l 401 158 l 489 572 q 494 620 494 598 q 350 729 494 729 q 160 717 263 729 l 126 713 l 161 876 q 395 888 263 888 q 593 865 526 888 q 686 801 660 842 q 712 705 712 759 q 696 572 712 650 m 224 500 q 274 515 244 515 q 315 502 303 515 q 328 475 328 488 q 300 414 328 435 q 249 398 279 398 q 208 411 219 398 q 196 436 196 424 q 224 500 196 479 z "},"גּ":{"ha":645,"x_min":-47,"x_max":593,"o":"m 355 715 q 313 725 340 725 q 209 713 256 725 l 193 709 l 227 873 q 366 888 290 888 q 486 874 441 888 q 555 837 532 860 q 593 722 593 800 q 578 616 593 682 l 448 0 l 291 0 l 288 127 l 277 127 q 266 112 273 122 q 233 78 258 102 q 179 36 207 54 q 108 2 151 17 q 20 -14 64 -14 q -47 -6 -7 -14 l 9 186 q 25 182 10 184 q 56 180 40 180 q 99 181 72 180 q 166 194 125 182 q 264 258 223 211 q 319 369 306 306 l 372 616 q 355 715 389 694 m 174 500 q 223 515 194 515 q 265 502 253 515 q 277 475 277 488 q 250 414 277 435 q 199 398 229 398 q 157 411 169 398 q 146 436 146 424 q 174 500 146 479 z "},"דּ":{"ha":760,"x_min":89,"x_max":821,"o":"m 821 875 l 789 725 q 723 693 760 714 q 663 633 684 668 q 631 543 643 599 l 516 0 l 309 0 l 426 548 q 451 616 433 585 q 487 663 468 646 q 551 708 526 699 l 563 712 l 564 717 l 89 717 l 122 875 l 821 875 m 209 500 q 259 515 229 515 q 300 502 288 515 q 313 475 313 488 q 285 414 313 435 q 234 398 264 398 q 193 411 204 398 q 181 436 181 424 q 209 500 181 479 z "},"הּ":{"ha":912,"x_min":14,"x_max":851,"o":"m 823 804 q 851 699 851 760 q 835 572 851 638 l 713 0 l 506 0 l 627 572 q 633 620 633 598 q 488 729 633 729 q 346 723 427 729 q 214 709 264 716 l 163 703 l 197 859 q 556 888 342 888 q 823 804 769 888 m 14 0 l 133 558 l 340 558 l 222 0 l 14 0 m 421 500 q 471 515 441 515 q 513 502 500 515 q 525 475 525 488 q 497 414 525 435 q 446 398 476 398 q 405 411 416 398 q 393 436 393 424 q 421 500 393 479 z "},"וּ":{"ha":424,"x_min":-40,"x_max":408,"o":"m 16 0 l 201 875 l 408 875 l 222 0 l 16 0 m -12 500 q 38 515 8 515 q 79 502 67 515 q 92 475 92 488 q 64 414 92 435 q 13 398 43 398 q -28 411 -17 398 q -40 436 -40 424 q -12 500 -40 479 z "},"זּ":{"ha":475,"x_min":-51,"x_max":536,"o":"m 536 875 l 503 717 q 428 647 465 691 q 369 561 392 602 q 329 466 345 519 q 305 386 312 414 q 284 294 298 357 l 222 0 l 15 0 l 77 294 q 163 528 107 435 q 264 656 215 615 q 336 707 312 696 l 347 712 l 349 717 l 136 717 l 169 875 l 536 875 m -23 500 q 27 515 -3 515 q 68 502 56 515 q 81 475 81 488 q 53 414 81 435 q 2 398 32 398 q -39 411 -28 398 q -51 436 -51 424 q -23 500 -51 479 z "},"טּ":{"ha":902,"x_min":88,"x_max":867,"o":"m 296 300 q 410 153 296 153 q 545 220 491 153 q 631 437 600 287 q 656 618 656 553 q 633 697 656 675 q 595 719 617 713 q 536 724 574 724 l 492 721 l 525 873 q 637 888 577 888 q 741 875 696 888 q 858 745 835 845 q 867 672 867 707 q 840 437 867 568 q 671 103 793 219 q 368 -14 549 -14 q 196 38 266 -14 q 100 191 127 90 q 88 298 88 237 q 104 437 88 359 l 197 873 l 406 873 q 319 465 342 573 q 296 300 296 357 m 439 500 q 489 515 459 515 q 530 502 518 515 q 543 475 543 488 q 515 414 543 435 q 464 398 494 398 q 422 411 434 398 q 411 436 411 424 q 439 500 411 479 z "},"יּ":{"ha":401,"x_min":-14,"x_max":401,"o":"m 140 296 l 71 296 l 195 875 l 401 875 l 315 471 l 140 296 m 14 627 q 64 642 35 642 q 106 628 94 642 q 118 602 118 614 q 90 541 118 562 q 39 525 69 525 q -2 538 9 525 q -14 563 -14 551 q 14 627 -14 606 z "},"ךּ":{"ha":741,"x_min":94,"x_max":669,"o":"m 386 888 q 523 865 466 888 q 611 804 581 842 q 656 716 642 766 q 669 617 669 666 q 654 488 669 559 l 479 -334 l 271 -334 l 450 509 q 461 595 461 558 q 449 663 461 632 q 406 712 437 694 q 326 729 375 729 q 94 714 239 729 l 128 873 q 386 888 252 888 m 186 500 q 236 515 206 515 q 277 502 265 515 q 290 475 290 488 q 262 414 290 435 q 211 398 241 398 q 170 411 181 398 q 158 436 158 424 q 186 500 158 479 z "},"כּ":{"ha":715,"x_min":-47,"x_max":679,"o":"m 395 888 q 532 865 475 888 q 621 804 589 842 q 665 716 652 766 q 679 617 679 666 q 663 488 679 559 l 642 387 q 412 31 585 117 q 203 -14 323 -14 q -47 5 48 -14 l -13 167 q 212 153 94 153 q 363 216 312 153 q 430 366 410 271 l 460 509 q 470 593 470 556 q 334 729 470 729 q 104 714 248 729 l 138 873 q 395 888 261 888 m 202 500 q 252 515 222 515 q 294 502 281 515 q 306 475 306 488 q 278 414 306 435 q 227 398 257 398 q 186 411 197 398 q 174 436 174 424 q 202 500 174 479 z "},"לּ":{"ha":756,"x_min":109,"x_max":810,"o":"m 810 875 l 782 741 l 574 325 l 433 0 l 231 0 l 373 325 l 568 717 l 109 717 l 181 1055 l 388 1055 l 350 875 l 810 875 m 178 500 q 228 515 199 515 q 270 502 258 515 q 282 475 282 488 q 254 414 282 435 q 203 398 233 398 q 162 411 174 398 q 151 436 151 424 q 178 500 151 479 z "},"מּ":{"ha":958,"x_min":-25,"x_max":884,"o":"m 174 753 q 173 794 174 775 q 171 827 172 813 q 169 849 170 840 q 166 863 168 857 q 165 876 165 869 l 363 876 q 370 814 368 849 l 373 741 l 386 741 q 429 789 399 761 q 491 837 460 818 q 573 872 522 857 q 682 888 623 888 q 784 866 741 888 q 849 807 827 844 q 884 651 884 749 q 865 495 884 586 l 760 0 l 385 0 l 418 158 l 581 158 l 648 471 q 665 601 665 549 q 657 656 665 631 q 637 694 650 682 q 555 724 608 724 q 491 710 524 724 q 435 674 458 695 q 362 598 385 631 l 353 583 l 177 0 l -25 0 l 144 555 q 174 753 174 655 m 444 500 q 494 515 465 515 q 536 502 524 515 q 548 475 548 488 q 520 414 548 435 q 469 398 499 398 q 428 411 439 398 q 416 436 416 424 q 444 500 416 479 z "},"נּ":{"ha":596,"x_min":-32,"x_max":541,"o":"m 194 876 q 320 888 255 888 q 430 874 386 888 q 497 837 473 861 q 541 714 541 793 q 528 616 541 674 l 452 260 q 417 131 439 196 q 379 33 395 66 l 363 0 l -32 0 l 1 158 l 212 158 q 257 314 235 210 l 321 616 q 304 715 338 694 q 264 725 290 725 q 159 713 214 725 l 194 876 m 119 500 q 169 515 139 515 q 210 502 198 515 q 222 475 222 488 q 195 414 222 435 q 144 398 174 398 q 102 411 114 398 q 91 436 91 424 q 119 500 91 479 z "},"סּ":{"ha":860,"x_min":45,"x_max":815,"o":"m 526 888 q 772 770 700 888 q 815 589 815 698 q 798 437 815 521 q 629 106 753 225 q 335 -14 506 -14 q 91 106 164 -14 q 45 290 45 179 q 62 438 45 357 q 128 598 79 519 q 224 713 177 677 l 225 719 l 134 713 l 168 869 q 526 888 329 888 m 256 300 q 369 151 256 151 q 587 437 526 151 q 605 579 605 520 q 492 729 605 729 l 415 728 q 273 437 311 616 q 256 300 256 357 m 396 500 q 446 515 416 515 q 488 502 475 515 q 500 475 500 488 q 472 414 500 435 q 421 398 451 398 q 380 411 391 398 q 368 436 368 424 q 396 500 368 479 z "},"ףּ":{"ha":888,"x_min":74,"x_max":808,"o":"m 74 495 q 86 591 74 533 q 133 703 98 648 q 211 792 167 758 q 309 849 254 827 q 518 890 405 890 q 720 831 647 890 q 768 774 747 809 q 808 600 808 707 q 789 438 808 526 l 625 -334 l 414 -334 l 578 438 q 601 593 601 541 q 593 649 601 622 q 572 690 586 677 q 483 724 541 724 q 406 711 440 724 q 353 682 372 699 q 320 644 334 666 q 296 591 300 612 q 292 554 292 569 q 297 518 292 538 q 320 483 303 498 q 380 448 351 454 l 406 444 l 338 289 l 303 294 q 170 327 214 306 q 74 495 74 374 m 417 635 q 467 651 437 651 q 509 637 496 651 q 521 611 521 623 q 493 549 521 571 q 442 534 472 534 q 401 547 412 534 q 389 572 389 559 q 417 635 389 614 z "},"פּ":{"ha":861,"x_min":22,"x_max":817,"o":"m 83 495 q 95 591 83 533 q 141 703 107 648 q 219 792 176 758 q 317 848 262 826 q 526 888 414 888 q 728 830 654 888 q 777 773 755 808 q 817 600 817 707 q 796 427 817 526 q 738 247 775 329 q 657 116 701 165 q 559 37 614 67 q 451 -3 503 7 q 323 -14 398 -14 q 170 -9 248 -14 q 57 1 92 -4 l 22 5 l 54 157 q 368 145 208 145 q 486 193 443 145 q 524 241 508 216 q 552 304 539 266 q 600 496 578 383 q 610 575 610 550 q 609 614 610 600 q 601 653 608 629 q 582 690 595 677 q 492 724 550 724 q 415 711 449 724 q 362 682 381 699 q 330 644 343 666 q 305 591 309 612 q 301 554 301 569 q 307 518 301 538 q 328 483 312 498 q 389 448 359 454 l 414 444 l 347 289 l 312 294 q 179 327 222 306 q 83 495 83 374 m 426 637 q 476 653 446 653 q 517 639 505 653 q 530 613 530 625 q 502 552 530 573 q 451 536 481 536 q 410 549 421 536 q 398 574 398 562 q 426 637 398 616 z "},"צּ":{"ha":864,"x_min":-42,"x_max":895,"o":"m 369 875 l 530 481 q 633 683 592 551 l 690 874 l 895 874 l 846 713 q 777 541 809 595 q 736 475 760 512 q 604 342 688 404 l 730 119 l 705 0 l -42 0 l -9 158 l 329 158 l 481 149 l 482 151 l 342 389 l 137 875 l 369 875 m 128 401 q 178 417 149 417 q 220 403 208 417 q 232 377 232 389 q 204 316 232 337 q 153 300 183 300 q 112 313 123 300 q 100 338 100 326 q 128 401 100 380 z "},"קּ":{"ha":888,"x_min":-50,"x_max":944,"o":"m 918 750 l 686 351 q 546 23 574 157 l 541 0 l 335 0 l 340 23 q 390 175 352 78 q 469 342 428 272 l 684 717 l 172 717 l 205 875 l 944 875 l 918 750 m -50 -334 l 132 524 l 323 524 l 142 -334 l -50 -334 m 388 500 q 438 515 408 515 q 479 502 467 515 q 492 475 492 488 q 464 414 492 435 q 413 398 443 398 q 372 411 383 398 q 360 436 360 424 q 388 500 360 479 z "},"רּ":{"ha":734,"x_min":93,"x_max":679,"o":"m 127 874 q 373 888 256 888 q 557 867 489 888 q 651 804 625 845 q 679 699 679 760 q 663 572 679 638 l 541 0 l 334 0 l 455 572 q 460 620 460 598 q 316 729 460 729 q 93 715 230 729 l 127 874 m 191 500 q 240 515 211 515 q 282 502 270 515 q 294 475 294 488 q 267 414 294 435 q 216 398 245 398 q 174 411 186 398 q 163 436 163 424 q 191 500 163 479 z "},"שּ":{"ha":1088,"x_min":50,"x_max":1120,"o":"m 446 0 l 50 0 l 162 875 l 360 875 l 304 437 q 324 436 312 436 q 410 465 378 436 q 461 559 441 493 l 554 875 l 751 875 l 659 562 q 324 295 581 295 q 286 296 311 295 l 268 158 l 489 158 q 682 246 602 158 q 808 489 762 334 l 922 875 l 1120 875 l 1007 494 q 933 301 970 374 q 446 0 777 0 m 545 329 q 594 345 565 345 q 636 331 624 345 q 648 304 648 317 q 621 243 648 264 q 570 227 600 227 q 528 240 540 227 q 517 265 517 253 q 545 329 517 308 z "},"תּ":{"ha":973,"x_min":-45,"x_max":913,"o":"m 886 804 q 913 699 913 760 q 897 572 913 638 l 776 0 l 568 0 l 689 572 q 694 620 694 598 q 551 729 694 729 q 468 727 513 729 l 368 259 q 334 151 355 197 q 277 66 313 105 q 48 -14 202 -14 q -2 -9 22 -14 q -45 5 -25 -4 l -11 162 q 58 150 32 150 q 102 159 83 150 q 132 186 121 169 q 161 259 152 215 l 258 712 l 157 703 l 191 859 q 618 888 405 888 q 886 804 831 888 m 500 500 q 550 515 521 515 q 592 502 580 515 q 604 475 604 488 q 576 414 604 435 q 526 398 555 398 q 484 411 496 398 q 473 436 473 424 q 500 500 473 479 z "},"וֹ":{"ha":424,"x_min":16,"x_max":408,"o":"m 259 1086 q 309 1102 279 1102 q 351 1088 338 1102 q 363 1062 363 1074 q 335 1001 363 1022 q 284 985 314 985 q 243 998 254 985 q 231 1023 231 1010 q 259 1086 231 1065 m 16 0 l 201 875 l 408 875 l 222 0 l 16 0 z "}," ":{"ha":361,"x_min":0,"x_max":0,"o":""}}}
